<svg width="211" height="149" viewBox="0 0 211 149" fill="none" xmlns="http://www.w3.org/2000/svg">
<path d="M191.442 136.585C192.833 138.053 190.725 139.96 189.102 138.702C175.567 128.209 162.032 117.722 148.497 107.242C148.482 107.226 148.463 107.212 148.442 107.202C147.508 106.569 146.619 105.872 145.782 105.115C133.185 103.788 119.341 99.3946 106.226 97.4877C94.6449 99.0452 83.0972 100.902 71.4832 102.28C61.3535 103.553 51.1562 104.213 40.947 104.257C32.6339 104.217 23.6806 104.167 16.1403 100.613C8.30203 96.9186 3.94133 89.6501 1.93201 82.182C0.941204 78.3705 0.294601 74.4777 0 70.5505V46.1994C1.07084 35.5962 4.33869 25.093 13.2037 17.6947C26.5067 6.59244 46.4227 6.30293 63.4461 5.99342C83.7266 5.60613 104.012 6.40957 124.199 8.39958C140.648 10.037 157.948 11.6245 173.16 17.9643C179.685 20.69 185.834 24.474 190.327 29.5958C195.384 35.3982 198.309 42.7524 198.618 50.4426C199.424 66.507 191.343 81.2036 186.916 96.3694C183.074 109.498 180.91 125.413 191.442 136.585Z" fill="#EF673F"/>
<path d="M201.693 34.0746C205.885 40.7624 208.256 48.4602 207.53 56.3946C206.904 63.2409 204.095 69.6795 201.025 75.7471C197.843 82.035 194.281 88.1409 191.679 94.706C188.823 101.862 187.767 109.61 188.605 117.269C189.12 122.242 190.123 127.147 191.068 132.051L193.954 147.022L196.461 145.562L154.983 109.704C153.529 108.447 151.398 110.56 152.862 111.825L194.34 147.683C194.577 147.907 194.881 148.047 195.204 148.084C195.528 148.121 195.855 148.052 196.137 147.888C196.419 147.724 196.64 147.474 196.768 147.174C196.896 146.874 196.923 146.541 196.847 146.224C195.151 137.429 193.148 128.628 191.907 119.755C191.193 115.281 191.093 110.73 191.609 106.228C192.117 102.797 193.018 99.4355 194.296 96.2108C199.271 83.2114 208.589 71.8398 210.385 57.7066C211.51 48.8515 208.979 40.052 204.284 32.5604C203.261 30.9283 200.664 32.4323 201.693 34.0746V34.0746Z" fill="#3F3D56"/>
<path d="M157.605 96.5799L96.263 103.837L65.592 107.465C56.2482 108.571 46.5103 110.123 37.1738 108.167C21.4553 104.874 11.6955 90.6309 8.62507 75.6206C6.72441 66.329 7.39723 56.6073 8.99623 47.3247C9.84869 42.3759 10.9737 37.4786 12.1894 32.6078C13.2729 28.267 14.081 23.5926 15.9531 19.5065C17.447 16.184 19.6699 13.2406 22.4568 10.8946C25.2437 8.54867 28.5232 6.8604 32.0518 5.95509C34.2558 5.50346 36.4889 5.20761 38.7345 5.06971C41.2573 4.81651 43.7821 4.58346 46.3088 4.37056C51.3619 3.94488 56.421 3.60012 61.486 3.33632C64.0181 3.2044 66.5511 3.09271 69.085 3.00123C71.0098 2.93078 71.019 -0.0695569 69.085 0.00123314C58.5407 0.38718 48.017 1.11808 37.514 2.19392C33.2349 2.63476 29.2789 3.27184 25.4163 5.27614C22.0786 7.02179 19.1473 9.45274 16.8143 12.4098C14.4236 15.4606 12.6699 18.9603 11.6572 22.7015C10.2767 27.6725 9.02378 32.6928 7.88072 37.7235C5.57664 47.8639 3.92045 58.3158 4.68986 68.7408C5.82786 84.1598 13.2098 100.61 27.5361 107.951C35.996 112.286 45.6499 112.48 54.92 111.652C65.2583 110.729 75.5675 109.285 85.8744 108.066L149.69 100.516L157.605 99.5799C159.499 99.3559 159.522 96.3532 157.605 96.5799H157.605Z" fill="#3F3D56"/>
<path d="M45.2045 79L42.5455 70.2727H43.9545L45.8409 76.9545H45.9318L47.7955 70.2727H49.2273L51.0682 76.9318H51.1591L53.0455 70.2727H54.4545L51.7955 79H50.4773L48.5682 72.2955H48.4318L46.5227 79H45.2045ZM59.4759 79.1818C58.688 79.1818 57.9967 78.9943 57.402 78.6193C56.8111 78.2443 56.349 77.7197 56.0156 77.0455C55.6861 76.3712 55.5213 75.5833 55.5213 74.6818C55.5213 73.7727 55.6861 72.9792 56.0156 72.3011C56.349 71.6231 56.8111 71.0966 57.402 70.7216C57.9967 70.3466 58.688 70.1591 59.4759 70.1591C60.2637 70.1591 60.9531 70.3466 61.544 70.7216C62.1387 71.0966 62.6009 71.6231 62.9304 72.3011C63.2637 72.9792 63.4304 73.7727 63.4304 74.6818C63.4304 75.5833 63.2637 76.3712 62.9304 77.0455C62.6009 77.7197 62.1387 78.2443 61.544 78.6193C60.9531 78.9943 60.2637 79.1818 59.4759 79.1818ZM59.4759 77.9773C60.0743 77.9773 60.5668 77.8239 60.9531 77.517C61.3395 77.2102 61.6255 76.8068 61.8111 76.3068C61.9967 75.8068 62.0895 75.2652 62.0895 74.6818C62.0895 74.0985 61.9967 73.5549 61.8111 73.0511C61.6255 72.5473 61.3395 72.1402 60.9531 71.8295C60.5668 71.5189 60.0743 71.3636 59.4759 71.3636C58.8774 71.3636 58.3849 71.5189 57.9986 71.8295C57.6122 72.1402 57.3262 72.5473 57.1406 73.0511C56.955 73.5549 56.8622 74.0985 56.8622 74.6818C56.8622 75.2652 56.955 75.8068 57.1406 76.3068C57.3262 76.8068 57.6122 77.2102 57.9986 77.517C58.3849 77.8239 58.8774 77.9773 59.4759 77.9773ZM65.4773 79V70.2727H66.7727V71.5909H66.8636C67.0227 71.1591 67.3106 70.8087 67.7273 70.5398C68.1439 70.2708 68.6136 70.1364 69.1364 70.1364C69.2348 70.1364 69.358 70.1383 69.5057 70.142C69.6534 70.1458 69.7652 70.1515 69.8409 70.1591V71.5227C69.7955 71.5114 69.6913 71.4943 69.5284 71.4716C69.3693 71.4451 69.2008 71.4318 69.0227 71.4318C68.5985 71.4318 68.2197 71.5208 67.8864 71.6989C67.5568 71.8731 67.2955 72.1155 67.1023 72.4261C66.9129 72.733 66.8182 73.0833 66.8182 73.4773V79H65.4773ZM72.6804 75.8182L72.6577 74.1591H72.9304L76.7486 70.2727H78.4077L74.3395 74.3864H74.2259L72.6804 75.8182ZM71.4304 79V67.3636H72.7713V79H71.4304ZM76.9759 79L73.5668 74.6818L74.5213 73.75L78.6804 79H76.9759ZM86.3153 72.2273L85.1108 72.5682C85.035 72.3674 84.9233 72.1723 84.7756 71.983C84.6316 71.7898 84.4347 71.6307 84.1847 71.5057C83.9347 71.3807 83.6146 71.3182 83.2244 71.3182C82.6903 71.3182 82.2453 71.4413 81.8892 71.6875C81.5369 71.9299 81.3608 72.2386 81.3608 72.6136C81.3608 72.947 81.482 73.2102 81.7244 73.4034C81.9669 73.5966 82.3456 73.7576 82.8608 73.8864L84.1562 74.2045C84.9366 74.3939 85.518 74.6837 85.9006 75.0739C86.2831 75.4602 86.4744 75.9583 86.4744 76.5682C86.4744 77.0682 86.3305 77.5152 86.0426 77.9091C85.7585 78.303 85.3608 78.6136 84.8494 78.8409C84.3381 79.0682 83.7434 79.1818 83.0653 79.1818C82.1752 79.1818 81.4384 78.9886 80.8551 78.6023C80.2718 78.2159 79.9025 77.6515 79.7472 76.9091L81.0199 76.5909C81.1411 77.0606 81.3703 77.4129 81.7074 77.6477C82.0483 77.8826 82.4934 78 83.0426 78C83.6676 78 84.1638 77.8674 84.5312 77.6023C84.9025 77.3333 85.0881 77.0114 85.0881 76.6364C85.0881 76.3333 84.982 76.0795 84.7699 75.875C84.5578 75.6667 84.232 75.5114 83.7926 75.4091L82.3381 75.0682C81.5388 74.8788 80.9517 74.5852 80.5767 74.1875C80.2055 73.786 80.0199 73.2841 80.0199 72.6818C80.0199 72.1894 80.1581 71.7538 80.4347 71.375C80.715 70.9962 81.0956 70.6989 81.5767 70.483C82.0616 70.267 82.6108 70.1591 83.2244 70.1591C84.0881 70.1591 84.7661 70.3485 85.2585 70.7273C85.7547 71.1061 86.107 71.6061 86.3153 72.2273ZM90.2656 67.3636L90.152 75.7273H88.8338L88.7202 67.3636H90.2656ZM89.4929 79.0909C89.2126 79.0909 88.9721 78.9905 88.7713 78.7898C88.5705 78.589 88.4702 78.3485 88.4702 78.0682C88.4702 77.7879 88.5705 77.5473 88.7713 77.3466C88.9721 77.1458 89.2126 77.0455 89.4929 77.0455C89.7732 77.0455 90.0137 77.1458 90.2145 77.3466C90.4152 77.5473 90.5156 77.7879 90.5156 78.0682C90.5156 78.2538 90.4683 78.4242 90.3736 78.5795C90.2827 78.7348 90.1596 78.8598 90.0043 78.9545C89.8527 79.0455 89.6823 79.0909 89.4929 79.0909Z" fill="white"/>
<path d="M49.4091 52.2273L48.2045 52.5682C48.1288 52.3674 48.017 52.1723 47.8693 51.983C47.7254 51.7898 47.5284 51.6307 47.2784 51.5057C47.0284 51.3807 46.7083 51.3182 46.3182 51.3182C45.7841 51.3182 45.339 51.4413 44.983 51.6875C44.6307 51.9299 44.4545 52.2386 44.4545 52.6136C44.4545 52.947 44.5758 53.2102 44.8182 53.4034C45.0606 53.5966 45.4394 53.7576 45.9545 53.8864L47.25 54.2045C48.0303 54.3939 48.6117 54.6837 48.9943 55.0739C49.3769 55.4602 49.5682 55.9583 49.5682 56.5682C49.5682 57.0682 49.4242 57.5152 49.1364 57.9091C48.8523 58.303 48.4545 58.6136 47.9432 58.8409C47.4318 59.0682 46.8371 59.1818 46.1591 59.1818C45.2689 59.1818 44.5322 58.9886 43.9489 58.6023C43.3655 58.2159 42.9962 57.6515 42.8409 56.9091L44.1136 56.5909C44.2348 57.0606 44.464 57.4129 44.8011 57.6477C45.142 57.8826 45.5871 58 46.1364 58C46.7614 58 47.2576 57.8674 47.625 57.6023C47.9962 57.3333 48.1818 57.0114 48.1818 56.6364C48.1818 56.3333 48.0758 56.0795 47.8636 55.875C47.6515 55.6667 47.3258 55.5114 46.8864 55.4091L45.4318 55.0682C44.6326 54.8788 44.0455 54.5852 43.6705 54.1875C43.2992 53.786 43.1136 53.2841 43.1136 52.6818C43.1136 52.1894 43.2519 51.7538 43.5284 51.375C43.8087 50.9962 44.1894 50.6989 44.6705 50.483C45.1553 50.267 45.7045 50.1591 46.3182 50.1591C47.1818 50.1591 47.8598 50.3485 48.3523 50.7273C48.8485 51.1061 49.2008 51.6061 49.4091 52.2273ZM55.1321 59.1818C54.3442 59.1818 53.6529 58.9943 53.0582 58.6193C52.4673 58.2443 52.0052 57.7197 51.6719 57.0455C51.3423 56.3712 51.1776 55.5833 51.1776 54.6818C51.1776 53.7727 51.3423 52.9792 51.6719 52.3011C52.0052 51.6231 52.4673 51.0966 53.0582 50.7216C53.6529 50.3466 54.3442 50.1591 55.1321 50.1591C55.92 50.1591 56.6094 50.3466 57.2003 50.7216C57.795 51.0966 58.2571 51.6231 58.5866 52.3011C58.92 52.9792 59.0866 53.7727 59.0866 54.6818C59.0866 55.5833 58.92 56.3712 58.5866 57.0455C58.2571 57.7197 57.795 58.2443 57.2003 58.6193C56.6094 58.9943 55.92 59.1818 55.1321 59.1818ZM55.1321 57.9773C55.7306 57.9773 56.223 57.8239 56.6094 57.517C56.9957 57.2102 57.2817 56.8068 57.4673 56.3068C57.6529 55.8068 57.7457 55.2652 57.7457 54.6818C57.7457 54.0985 57.6529 53.5549 57.4673 53.0511C57.2817 52.5473 56.9957 52.1402 56.6094 51.8295C56.223 51.5189 55.7306 51.3636 55.1321 51.3636C54.5336 51.3636 54.0412 51.5189 53.6548 51.8295C53.2685 52.1402 52.9825 52.5473 52.7969 53.0511C52.6113 53.5549 52.5185 54.0985 52.5185 54.6818C52.5185 55.2652 52.6113 55.8068 52.7969 56.3068C52.9825 56.8068 53.2685 57.2102 53.6548 57.517C54.0412 57.8239 54.5336 57.9773 55.1321 57.9773ZM61.1335 59V50.2727H62.429V51.6364H62.5426C62.7244 51.1705 63.018 50.8087 63.4233 50.5511C63.8286 50.2898 64.3153 50.1591 64.8835 50.1591C65.4593 50.1591 65.9384 50.2898 66.321 50.5511C66.7074 50.8087 67.0085 51.1705 67.2244 51.6364H67.3153C67.5388 51.1856 67.8741 50.8277 68.321 50.5625C68.768 50.2936 69.304 50.1591 69.929 50.1591C70.7093 50.1591 71.3475 50.4034 71.8438 50.892C72.34 51.3769 72.5881 52.1326 72.5881 53.1591V59H71.2472V53.1591C71.2472 52.5152 71.071 52.0549 70.7188 51.7784C70.3665 51.5019 69.9517 51.3636 69.4744 51.3636C68.8608 51.3636 68.3854 51.5492 68.0483 51.9205C67.7112 52.2879 67.5426 52.7538 67.5426 53.3182V59H66.179V53.0227C66.179 52.5265 66.018 52.1269 65.696 51.8239C65.3741 51.517 64.9593 51.3636 64.4517 51.3636C64.1032 51.3636 63.7775 51.4564 63.4744 51.642C63.1752 51.8277 62.9328 52.0852 62.7472 52.4148C62.5653 52.7405 62.4744 53.1174 62.4744 53.5455V59H61.1335ZM78.6989 59.1818C77.858 59.1818 77.1326 58.9962 76.5227 58.625C75.9167 58.25 75.4489 57.7273 75.1193 57.0568C74.7936 56.3826 74.6307 55.5985 74.6307 54.7045C74.6307 53.8106 74.7936 53.0227 75.1193 52.3409C75.4489 51.6553 75.9072 51.1212 76.4943 50.7386C77.0852 50.3523 77.7746 50.1591 78.5625 50.1591C79.017 50.1591 79.4659 50.2348 79.9091 50.3864C80.3523 50.5379 80.7557 50.7841 81.1193 51.125C81.483 51.4621 81.7727 51.9091 81.9886 52.4659C82.2045 53.0227 82.3125 53.7083 82.3125 54.5227V55.0909H75.5852V53.9318H80.9489C80.9489 53.4394 80.8504 53 80.6534 52.6136C80.4602 52.2273 80.1837 51.9223 79.8239 51.6989C79.4678 51.4754 79.0473 51.3636 78.5625 51.3636C78.0284 51.3636 77.5663 51.4962 77.1761 51.7614C76.7898 52.0227 76.4924 52.3636 76.2841 52.7841C76.0758 53.2045 75.9716 53.6553 75.9716 54.1364V54.9091C75.9716 55.5682 76.0852 56.1269 76.3125 56.5852C76.5436 57.0398 76.8636 57.3864 77.2727 57.625C77.6818 57.8598 78.1572 57.9773 78.6989 57.9773C79.0511 57.9773 79.3693 57.928 79.6534 57.8295C79.9413 57.7273 80.1894 57.5758 80.3977 57.375C80.6061 57.1705 80.767 56.9167 80.8807 56.6136L82.1761 56.9773C82.0398 57.4167 81.8106 57.803 81.4886 58.1364C81.1667 58.4659 80.7689 58.7235 80.2955 58.9091C79.822 59.0909 79.2898 59.1818 78.6989 59.1818ZM92.3977 59.1818C91.6098 59.1818 90.9186 58.9943 90.3239 58.6193C89.733 58.2443 89.2708 57.7197 88.9375 57.0455C88.608 56.3712 88.4432 55.5833 88.4432 54.6818C88.4432 53.7727 88.608 52.9792 88.9375 52.3011C89.2708 51.6231 89.733 51.0966 90.3239 50.7216C90.9186 50.3466 91.6098 50.1591 92.3977 50.1591C93.1856 50.1591 93.875 50.3466 94.4659 50.7216C95.0606 51.0966 95.5227 51.6231 95.8523 52.3011C96.1856 52.9792 96.3523 53.7727 96.3523 54.6818C96.3523 55.5833 96.1856 56.3712 95.8523 57.0455C95.5227 57.7197 95.0606 58.2443 94.4659 58.6193C93.875 58.9943 93.1856 59.1818 92.3977 59.1818ZM92.3977 57.9773C92.9962 57.9773 93.4886 57.8239 93.875 57.517C94.2614 57.2102 94.5473 56.8068 94.733 56.3068C94.9186 55.8068 95.0114 55.2652 95.0114 54.6818C95.0114 54.0985 94.9186 53.5549 94.733 53.0511C94.5473 52.5473 94.2614 52.1402 93.875 51.8295C93.4886 51.5189 92.9962 51.3636 92.3977 51.3636C91.7992 51.3636 91.3068 51.5189 90.9205 51.8295C90.5341 52.1402 90.2481 52.5473 90.0625 53.0511C89.8769 53.5549 89.7841 54.0985 89.7841 54.6818C89.7841 55.2652 89.8769 55.8068 90.0625 56.3068C90.2481 56.8068 90.5341 57.2102 90.9205 57.517C91.3068 57.8239 91.7992 57.9773 92.3977 57.9773ZM102.286 50.2727V51.4091H97.581V50.2727H102.286ZM98.9901 59V49.0682C98.9901 48.5682 99.1075 48.1515 99.3423 47.8182C99.5772 47.4848 99.8821 47.2348 100.257 47.0682C100.632 46.9015 101.028 46.8182 101.445 46.8182C101.774 46.8182 102.043 46.8447 102.251 46.8977C102.46 46.9508 102.615 47 102.717 47.0455L102.331 48.2045C102.263 48.1818 102.168 48.1534 102.047 48.1193C101.929 48.0852 101.774 48.0682 101.581 48.0682C101.138 48.0682 100.818 48.1799 100.621 48.4034C100.428 48.6269 100.331 48.9545 100.331 49.3864V59H98.9901ZM108.665 59V50.2727H109.96V51.6364H110.074C110.256 51.1705 110.549 50.8087 110.955 50.5511C111.36 50.2898 111.847 50.1591 112.415 50.1591C112.991 50.1591 113.47 50.2898 113.852 50.5511C114.239 50.8087 114.54 51.1705 114.756 51.6364H114.847C115.07 51.1856 115.405 50.8277 115.852 50.5625C116.299 50.2936 116.835 50.1591 117.46 50.1591C118.241 50.1591 118.879 50.4034 119.375 50.892C119.871 51.3769 120.119 52.1326 120.119 53.1591V59H118.778V53.1591C118.778 52.5152 118.602 52.0549 118.25 51.7784C117.898 51.5019 117.483 51.3636 117.006 51.3636C116.392 51.3636 115.917 51.5492 115.58 51.9205C115.242 52.2879 115.074 52.7538 115.074 53.3182V59H113.71V53.0227C113.71 52.5265 113.549 52.1269 113.227 51.8239C112.905 51.517 112.491 51.3636 111.983 51.3636C111.634 51.3636 111.309 51.4564 111.006 51.642C110.706 51.8277 110.464 52.0852 110.278 52.4148C110.097 52.7405 110.006 53.1174 110.006 53.5455V59H108.665ZM123.122 62.2727C122.895 62.2727 122.692 62.2538 122.514 62.2159C122.336 62.1818 122.213 62.1477 122.145 62.1136L122.486 60.9318C122.812 61.0152 123.099 61.0455 123.349 61.0227C123.599 61 123.821 60.8883 124.014 60.6875C124.211 60.4905 124.391 60.1705 124.554 59.7273L124.804 59.0455L121.577 50.2727H123.031L125.44 57.2273H125.531L127.94 50.2727H129.395L125.69 60.2727C125.524 60.7235 125.317 61.0966 125.071 61.392C124.825 61.6913 124.539 61.9129 124.213 62.0568C123.891 62.2008 123.527 62.2727 123.122 62.2727Z" fill="white"/>
<path d="M52.7727 31H51.3636C51.2803 30.5947 51.1345 30.2386 50.9261 29.9318C50.7216 29.625 50.4716 29.3674 50.1761 29.1591C49.8845 28.947 49.5606 28.7879 49.2045 28.6818C48.8485 28.5758 48.4773 28.5227 48.0909 28.5227C47.3864 28.5227 46.7481 28.7008 46.1761 29.0568C45.608 29.4129 45.1553 29.9375 44.8182 30.6307C44.4848 31.3239 44.3182 32.1742 44.3182 33.1818C44.3182 34.1894 44.4848 35.0398 44.8182 35.733C45.1553 36.4261 45.608 36.9508 46.1761 37.3068C46.7481 37.6629 47.3864 37.8409 48.0909 37.8409C48.4773 37.8409 48.8485 37.7879 49.2045 37.6818C49.5606 37.5758 49.8845 37.4186 50.1761 37.2102C50.4716 36.9981 50.7216 36.7386 50.9261 36.4318C51.1345 36.1212 51.2803 35.7652 51.3636 35.3636H52.7727C52.6667 35.9583 52.4735 36.4905 52.1932 36.9602C51.9129 37.4299 51.5644 37.8295 51.1477 38.1591C50.7311 38.4848 50.2633 38.733 49.7443 38.9034C49.2292 39.0739 48.678 39.1591 48.0909 39.1591C47.0985 39.1591 46.2159 38.9167 45.4432 38.4318C44.6705 37.947 44.0625 37.2576 43.6193 36.3636C43.1761 35.4697 42.9545 34.4091 42.9545 33.1818C42.9545 31.9545 43.1761 30.8939 43.6193 30C44.0625 29.1061 44.6705 28.4167 45.4432 27.9318C46.2159 27.447 47.0985 27.2045 48.0909 27.2045C48.678 27.2045 49.2292 27.2898 49.7443 27.4602C50.2633 27.6307 50.7311 27.8807 51.1477 28.2102C51.5644 28.536 51.9129 28.9337 52.1932 29.4034C52.4735 29.8693 52.6667 30.4015 52.7727 31ZM56.2088 33.75V39H54.8679V27.3636H56.2088V31.6364H56.3224C56.527 31.1856 56.8338 30.8277 57.2429 30.5625C57.6558 30.2936 58.205 30.1591 58.8906 30.1591C59.4853 30.1591 60.0062 30.2784 60.4531 30.517C60.9001 30.7519 61.2467 31.1136 61.4929 31.6023C61.7429 32.0871 61.8679 32.7045 61.8679 33.4545V39H60.527V33.5455C60.527 32.8523 60.3471 32.3163 59.9872 31.9375C59.6312 31.5549 59.1368 31.3636 58.5043 31.3636C58.0649 31.3636 57.6709 31.4564 57.3224 31.642C56.9777 31.8277 56.705 32.0985 56.5043 32.4545C56.3073 32.8106 56.2088 33.2424 56.2088 33.75ZM67.9801 39.1818C67.1392 39.1818 66.4138 38.9962 65.804 38.625C65.1979 38.25 64.7301 37.7273 64.4006 37.0568C64.0748 36.3826 63.9119 35.5985 63.9119 34.7045C63.9119 33.8106 64.0748 33.0227 64.4006 32.3409C64.7301 31.6553 65.1884 31.1212 65.7756 30.7386C66.3665 30.3523 67.0559 30.1591 67.8438 30.1591C68.2983 30.1591 68.7472 30.2348 69.1903 30.3864C69.6335 30.5379 70.0369 30.7841 70.4006 31.125C70.7642 31.4621 71.054 31.9091 71.2699 32.4659C71.4858 33.0227 71.5938 33.7083 71.5938 34.5227V35.0909H64.8665V33.9318H70.2301C70.2301 33.4394 70.1316 33 69.9347 32.6136C69.7415 32.2273 69.465 31.9223 69.1051 31.6989C68.7491 31.4754 68.3286 31.3636 67.8438 31.3636C67.3097 31.3636 66.8475 31.4962 66.4574 31.7614C66.071 32.0227 65.7737 32.3636 65.5653 32.7841C65.357 33.2045 65.2528 33.6553 65.2528 34.1364V34.9091C65.2528 35.5682 65.3665 36.1269 65.5938 36.5852C65.8248 37.0398 66.1449 37.3864 66.554 37.625C66.9631 37.8598 67.4384 37.9773 67.9801 37.9773C68.3324 37.9773 68.6506 37.928 68.9347 37.8295C69.2225 37.7273 69.4706 37.5758 69.679 37.375C69.8873 37.1705 70.0483 36.9167 70.1619 36.6136L71.4574 36.9773C71.321 37.4167 71.0919 37.803 70.7699 38.1364C70.4479 38.4659 70.0502 38.7235 69.5767 38.9091C69.1032 39.0909 68.571 39.1818 67.9801 39.1818ZM77.179 39.1818C76.3608 39.1818 75.6563 38.9886 75.0653 38.6023C74.4744 38.2159 74.0199 37.6837 73.7017 37.0057C73.3835 36.3277 73.2244 35.553 73.2244 34.6818C73.2244 33.7955 73.3873 33.0133 73.7131 32.3352C74.0426 31.6534 74.5009 31.1212 75.0881 30.7386C75.679 30.3523 76.3684 30.1591 77.1562 30.1591C77.7699 30.1591 78.3229 30.2727 78.8153 30.5C79.3078 30.7273 79.7112 31.0455 80.0256 31.4545C80.34 31.8636 80.535 32.3409 80.6108 32.8864H79.2699C79.1676 32.4886 78.9403 32.1364 78.5881 31.8295C78.2396 31.5189 77.7699 31.3636 77.179 31.3636C76.6563 31.3636 76.1979 31.5 75.804 31.7727C75.4138 32.0417 75.1089 32.4223 74.8892 32.9148C74.6733 33.4034 74.5653 33.9773 74.5653 34.6364C74.5653 35.3106 74.6714 35.8977 74.8835 36.3977C75.0994 36.8977 75.4025 37.286 75.7926 37.5625C76.1866 37.839 76.6487 37.9773 77.179 37.9773C77.5275 37.9773 77.8438 37.9167 78.1278 37.7955C78.4119 37.6742 78.6525 37.5 78.8494 37.2727C79.0464 37.0455 79.1866 36.7727 79.2699 36.4545H80.6108C80.535 36.9697 80.3475 37.4337 80.0483 37.8466C79.7528 38.2557 79.3608 38.5814 78.8722 38.8239C78.3873 39.0625 77.8229 39.1818 77.179 39.1818ZM83.821 35.8182L83.7983 34.1591H84.071L87.8892 30.2727H89.5483L85.4801 34.3864H85.3665L83.821 35.8182ZM82.571 39V27.3636H83.9119V39H82.571ZM88.1165 39L84.7074 34.6818L85.6619 33.75L89.821 39H88.1165ZM99.3196 39.1818C98.5317 39.1818 97.8404 38.9943 97.2457 38.6193C96.6548 38.2443 96.1927 37.7197 95.8594 37.0455C95.5298 36.3712 95.3651 35.5833 95.3651 34.6818C95.3651 33.7727 95.5298 32.9792 95.8594 32.3011C96.1927 31.6231 96.6548 31.0966 97.2457 30.7216C97.8404 30.3466 98.5317 30.1591 99.3196 30.1591C100.107 30.1591 100.797 30.3466 101.388 30.7216C101.982 31.0966 102.445 31.6231 102.774 32.3011C103.107 32.9792 103.274 33.7727 103.274 34.6818C103.274 35.5833 103.107 36.3712 102.774 37.0455C102.445 37.7197 101.982 38.2443 101.388 38.6193C100.797 38.9943 100.107 39.1818 99.3196 39.1818ZM99.3196 37.9773C99.9181 37.9773 100.411 37.8239 100.797 37.517C101.183 37.2102 101.469 36.8068 101.655 36.3068C101.84 35.8068 101.933 35.2652 101.933 34.6818C101.933 34.0985 101.84 33.5549 101.655 33.0511C101.469 32.5473 101.183 32.1402 100.797 31.8295C100.411 31.5189 99.9181 31.3636 99.3196 31.3636C98.7211 31.3636 98.2287 31.5189 97.8423 31.8295C97.456 32.1402 97.17 32.5473 96.9844 33.0511C96.7988 33.5549 96.706 34.0985 96.706 34.6818C96.706 35.2652 96.7988 35.8068 96.9844 36.3068C97.17 36.8068 97.456 37.2102 97.8423 37.517C98.2287 37.8239 98.7211 37.9773 99.3196 37.9773ZM110.821 35.4318V30.2727H112.162V39H110.821V37.5227H110.73C110.526 37.9659 110.207 38.3428 109.776 38.6534C109.344 38.9602 108.798 39.1136 108.139 39.1136C107.594 39.1136 107.109 38.9943 106.685 38.7557C106.26 38.5133 105.927 38.1496 105.685 37.6648C105.442 37.1761 105.321 36.5606 105.321 35.8182V30.2727H106.662V35.7273C106.662 36.3636 106.84 36.8712 107.196 37.25C107.556 37.6288 108.014 37.8182 108.571 37.8182C108.904 37.8182 109.243 37.733 109.588 37.5625C109.937 37.392 110.228 37.1307 110.463 36.7784C110.702 36.4261 110.821 35.9773 110.821 35.4318ZM118.413 30.2727V31.4091H113.891V30.2727H118.413ZM115.209 28.1818H116.55V36.5C116.55 36.8788 116.605 37.1629 116.714 37.3523C116.828 37.5379 116.972 37.6629 117.146 37.7273C117.324 37.7879 117.512 37.8182 117.709 37.8182C117.857 37.8182 117.978 37.8106 118.072 37.7955C118.167 37.7765 118.243 37.7614 118.3 37.75L118.572 38.9545C118.482 38.9886 118.355 39.0227 118.192 39.0568C118.029 39.0947 117.822 39.1136 117.572 39.1136C117.194 39.1136 116.822 39.0322 116.459 38.8693C116.099 38.7064 115.8 38.4583 115.561 38.125C115.326 37.7917 115.209 37.3712 115.209 36.8636V28.1818Z" fill="white"/>
</svg>
