<svg width="256" height="466" viewBox="0 0 256 466" fill="none" xmlns="http://www.w3.org/2000/svg">
<path d="M76.7153 253.301C77.6908 251.923 78.0903 250.219 77.8287 248.552C77.5671 246.884 76.6651 245.384 75.3146 244.372C75.0369 244.17 74.7429 243.992 74.4358 243.839L77.3406 199.723L62.561 202.285L65.8555 247.167C65.3196 248.49 65.2366 249.953 65.6195 251.328C66.0024 252.703 66.8297 253.912 67.9722 254.767C68.627 255.248 69.3701 255.594 70.1589 255.788C70.9477 255.981 71.7668 256.017 72.5695 255.894C73.3722 255.77 74.1428 255.49 74.8372 255.069C75.5316 254.648 76.1363 254.094 76.6167 253.439C76.6502 253.394 76.6831 253.347 76.7153 253.301Z" fill="#FFB6B6"/>
<path d="M169.143 453.762L159.242 453.761L154.532 415.571L169.145 415.572L169.143 453.762Z" fill="#FFB6B6"/>
<path d="M169.491 464.091L139.044 464.09V463.705C139.044 460.562 140.293 457.548 142.516 455.325C144.738 453.103 147.752 451.854 150.895 451.854H150.896L156.457 447.635L166.834 451.855L169.492 451.855L169.491 464.091Z" fill="#2F2E41"/>
<path d="M147.216 439.003L138.757 444.148L114.886 413.967L127.371 406.374L147.216 439.003Z" fill="#FFB6B6"/>
<path d="M152.881 447.646L126.868 463.468L126.668 463.139C125.035 460.454 124.535 457.23 125.279 454.176C126.023 451.122 127.949 448.489 130.634 446.856L130.635 446.855L133.194 440.36L144.252 438.573L146.523 437.192L152.881 447.646Z" fill="#2F2E41"/>
<path d="M167.213 234.728C167.213 234.728 175.397 250.991 172.213 258.728C169.028 266.466 174.824 326.412 171.519 329.07C168.213 331.728 166.085 329.601 170.649 334.165C175.213 338.729 177.213 333.728 176.213 340.728C175.213 347.728 169.213 436.728 169.213 436.728L155.519 437.07C155.519 437.07 138.213 393.728 141.213 363.728L124.083 281.111C124.083 281.111 121.614 295.831 121.413 299.28C121.213 302.729 119.213 303.728 118.213 303.728C113.208 303.728 114.748 302.839 115.481 307.784C116.213 312.729 107.255 352.309 107.255 352.309L137.213 421.728L127.213 431.728L75.393 355.93L65.4582 278.87C65.4582 278.87 62.7035 271.138 65.4582 270.933C68.2128 270.729 69.7718 271.603 68.9923 268.665C68.2128 265.728 84.2128 216.729 84.2128 216.729L167.213 234.728Z" fill="#2F2E41"/>
<path d="M172.213 236.729C169.903 242.079 162.033 237.179 144.213 238.729C142.153 238.909 140.123 238.999 138.103 239.019C126.153 239.149 114.983 236.879 105.943 236.209C99.433 235.719 94.023 236.059 90.213 238.729C80.213 245.729 76.253 224.069 76.253 224.069C75.8269 218.341 77.2123 212.625 80.213 207.729C85.213 199.729 90.333 180.719 83.213 173.729C76.093 166.739 75.333 155.739 78.213 152.729C81.093 149.719 90.553 89.5286 89.213 79.7286C88.153 71.9986 100.093 69.5186 105.173 68.8186C106.533 68.6286 107.403 68.5686 107.403 68.5686L119.213 70.7286L136.213 73.7286L149.903 73.9886C149.903 73.9886 150.093 74.0786 150.453 74.2386C156.681 77.1849 162.626 80.6963 168.213 84.7286C176.293 90.8186 170.323 181.719 170.323 181.719C170.323 181.719 169.213 208.789 175.213 214.729C181.213 220.669 174.523 231.379 172.213 236.729Z" fill="#3F3D56"/>
<path d="M113.213 74.5437L90.2129 75.5437C90.2129 75.5437 59.2129 137.544 63.2129 141.544C67.2129 145.544 71.2992 143.273 66.2561 148.408C61.2129 153.544 56.2129 151.544 59.2129 155.544C62.2129 159.544 66.2129 155.043 62.2129 160.793C58.2129 166.544 61.0892 212.729 61.0892 212.729H76.9071C76.9071 212.729 88.0892 173.93 87.1511 169.237C86.213 164.544 86.0892 160.533 87.1511 159.038C88.213 157.544 113.213 74.5437 113.213 74.5437Z" fill="#3F3D56"/>
<path d="M127.386 54.1781C140.12 54.1781 150.442 43.8557 150.442 31.1223C150.442 18.389 140.12 8.06665 127.386 8.06665C114.653 8.06665 104.331 18.389 104.331 31.1223C104.331 43.8557 114.653 54.1781 127.386 54.1781Z" fill="#FFB6B6"/>
<path d="M145.353 50.9786L136.213 52.7286C136.213 52.7286 144.713 39.0086 144.213 32.7286C143.713 26.4486 136.873 24.1986 136.873 24.1986C136.873 24.1986 133.083 25.0186 129.093 25.4786C128.615 24.1331 127.995 22.8424 127.243 21.6286C127.095 23.1956 126.401 24.6609 125.283 25.7686C123.821 25.8942 122.348 25.7242 120.953 25.2686C119.373 24.5486 119.403 23.2986 119.923 22.1286C114.773 22.5536 109.748 23.9338 105.103 26.1986C104.873 23.1285 104.99 20.0423 105.453 16.9986C105.673 16.9386 105.893 16.8687 106.113 16.7986C107.476 16.3674 108.79 15.7943 110.033 15.0886C108.65 14.905 107.357 14.2971 106.333 13.3486C107.173 10.8886 108.513 8.7586 110.623 7.7186C112.659 6.72299 114.885 6.17651 117.15 6.11612C119.415 6.05573 121.667 6.48285 123.753 7.36859C123.753 7.36859 118.863 3.79859 120.663 2.33859C120.783 2.45859 120.903 2.56862 121.033 2.67862C121.203 2.81862 121.393 2.96861 121.573 3.10861C122.683 4.00861 124.343 2.7386 124.563 1.3786C124.587 1.20686 124.62 1.03661 124.663 0.868653C124.693 0.728653 124.733 0.58865 124.773 0.45865C124.807 0.34327 124.847 0.229781 124.893 0.118653C128.223 -0.681347 138.293 2.56867 142.163 9.72867C142.163 9.72862 169.213 22.7286 145.353 50.9786Z" fill="#3F3D56"/>
<path d="M143.679 248.966C143.437 247.296 143.857 245.597 144.849 244.231C145.84 242.865 147.326 241.94 148.989 241.652C149.328 241.599 149.671 241.574 150.014 241.578L167.5 200.971L179.496 209.977L156.141 248.445C156.016 249.867 155.424 251.208 154.458 252.258C153.491 253.308 152.204 254.008 150.798 254.25C149.996 254.38 149.177 254.351 148.386 254.164C147.596 253.977 146.85 253.636 146.191 253.161C145.533 252.686 144.974 252.086 144.547 251.395C144.12 250.704 143.834 249.936 143.704 249.134C143.695 249.078 143.687 249.022 143.679 248.966Z" fill="#FFB6B6"/>
<path d="M145.713 84.5437L168.713 85.5437C168.713 85.5437 202.713 143.544 198.713 147.544C194.713 151.544 190.627 149.273 195.67 154.408C200.713 159.544 205.713 157.544 202.713 161.544C199.713 165.544 195.713 161.043 199.713 166.793C203.713 172.544 171.213 226.729 171.213 226.729L157.213 219.729C157.213 219.729 170.837 183.93 171.775 179.237C172.713 174.544 172.837 170.533 171.775 169.038C170.713 167.544 145.713 84.5437 145.713 84.5437Z" fill="#3F3D56"/>
<path d="M150.453 74.2386L118.213 148.729L105.173 68.8186C106.533 68.6286 107.403 68.5686 107.403 68.5686L112.953 57.7886L144.743 59.4386L149.903 73.9886C149.903 73.9886 150.093 74.0786 150.453 74.2386Z" fill="#EF673F"/>
<path d="M138.103 240.019C126.153 240.149 114.983 237.878 105.943 237.208L117.213 180.729L138.103 240.019Z" fill="#EF673F"/>
<path d="M5.26443e-06 463.994C-0.000460805 464.15 0.0300241 464.305 0.0896659 464.45C0.149308 464.595 0.236938 464.726 0.347539 464.836C0.45814 464.947 0.589541 465.035 0.734136 465.094C0.878731 465.154 1.03366 465.184 1.19007 465.184H254.48C254.796 465.184 255.098 465.059 255.322 464.835C255.545 464.612 255.67 464.31 255.67 463.994C255.67 463.678 255.545 463.376 255.322 463.153C255.098 462.929 254.796 462.804 254.48 462.804H1.19007C1.03366 462.803 0.878728 462.834 0.734136 462.894C0.589544 462.953 0.458139 463.041 0.347539 463.151C0.23694 463.262 0.14931 463.393 0.0896659 463.538C0.0300223 463.683 -0.000455496 463.838 5.26443e-06 463.994V463.994Z" fill="#CCCCCC"/>
</svg>
