<svg width="569" height="48" viewBox="0 0 569 48" fill="none" xmlns="http://www.w3.org/2000/svg">
<path d="M567.73 47.3105H1C0.734784 47.3105 0.480429 47.2052 0.292892 47.0177C0.105356 46.8301 0 46.5758 0 46.3105C0 46.0453 0.105356 45.791 0.292892 45.6034C0.480429 45.4159 0.734784 45.3105 1 45.3105H567.73C567.996 45.3105 568.25 45.4159 568.438 45.6034C568.625 45.791 568.73 46.0453 568.73 46.3105C568.73 46.5758 568.625 46.8301 568.438 47.0177C568.25 47.2052 567.996 47.3105 567.73 47.3105Z" fill="#E6E6E6"/>
<path d="M29.3548 17.2901C34.0253 17.2901 37.8114 13.4196 37.8114 8.64507C37.8114 3.87053 34.0253 0 29.3548 0C24.6843 0 20.8982 3.87053 20.8982 8.64507C20.8982 13.4196 24.6843 17.2901 29.3548 17.2901Z" fill="#E6E6E6"/>
<path d="M58.5687 17.2901C63.2391 17.2901 67.0253 13.4196 67.0253 8.64507C67.0253 3.87053 63.2391 0 58.5687 0C53.8982 0 50.1121 3.87053 50.1121 8.64507C50.1121 13.4196 53.8982 17.2901 58.5687 17.2901Z" fill="#E6E6E6"/>
<path d="M87.7823 17.2901C92.4528 17.2901 96.2389 13.4196 96.2389 8.64507C96.2389 3.87053 92.4528 0 87.7823 0C83.1118 0 79.3257 3.87053 79.3257 8.64507C79.3257 13.4196 83.1118 17.2901 87.7823 17.2901Z" fill="#E6E6E6"/>
<path d="M121.094 15.4779C120.961 15.4781 120.829 15.4515 120.706 15.3999C120.583 15.3482 120.472 15.2725 120.379 15.1771L114.673 9.34409C114.49 9.15729 114.388 8.90628 114.388 8.64487C114.388 8.38346 114.49 8.13245 114.673 7.94565L120.379 2.11313C120.565 1.92655 120.817 1.82098 121.081 1.81935C121.344 1.81773 121.598 1.92018 121.786 2.10445C121.975 2.28872 122.083 2.53992 122.087 2.80341C122.091 3.0669 121.991 3.32139 121.809 3.51157L116.787 8.64487L121.809 13.7787C121.946 13.9194 122.039 14.0976 122.076 14.2909C122.113 14.4843 122.092 14.6842 122.016 14.8657C121.939 15.0471 121.811 15.202 121.647 15.3109C121.483 15.4198 121.291 15.4779 121.094 15.4779V15.4779Z" fill="#E6E6E6"/>
<path d="M130.682 15.4779C130.485 15.4779 130.293 15.4198 130.129 15.3109C129.965 15.202 129.837 15.0471 129.76 14.8657C129.684 14.6843 129.663 14.4843 129.7 14.291C129.737 14.0976 129.83 13.9194 129.967 13.7787L134.989 8.64492L129.967 3.51162C129.874 3.41806 129.8 3.30692 129.75 3.18465C129.7 3.06238 129.674 2.93139 129.675 2.79924C129.676 2.6671 129.703 2.53644 129.755 2.4148C129.806 2.29316 129.882 2.18295 129.976 2.09055C130.07 1.99815 130.182 1.92537 130.305 1.87645C130.428 1.82754 130.559 1.80344 130.691 1.80555C130.823 1.80765 130.954 1.83592 131.075 1.88872C131.196 1.94152 131.305 2.0178 131.397 2.11316L137.103 7.9457C137.285 8.1325 137.388 8.38351 137.388 8.64492C137.388 8.90633 137.285 9.15733 137.103 9.34414L131.397 15.1771C131.304 15.2725 131.193 15.3482 131.07 15.3999C130.947 15.4516 130.815 15.4781 130.682 15.4779V15.4779Z" fill="#E6E6E6"/>
<path d="M517.192 1.00098H506.582C506.294 1.00089 506.01 1.05748 505.744 1.16751C505.478 1.27754 505.237 1.43885 505.033 1.64223C504.83 1.84561 504.669 2.08706 504.559 2.3528C504.449 2.61854 504.392 2.90336 504.392 3.19098V13.811C504.392 14.0986 504.449 14.3834 504.559 14.6492C504.669 14.9149 504.83 15.1564 505.033 15.3597C505.237 15.5631 505.478 15.7244 505.744 15.8345C506.01 15.9445 506.294 16.0011 506.582 16.001H517.192C517.774 16.0015 518.332 15.7713 518.745 15.3608C519.157 14.9502 519.39 14.3929 519.392 13.811V3.19098C519.39 2.60907 519.157 2.05173 518.745 1.64119C518.332 1.23065 517.774 1.00042 517.192 1.00098V1.00098Z" fill="#E6E6E6"/>
<path d="M491.192 1.00098H480.582C480.294 1.00089 480.01 1.05748 479.744 1.16751C479.478 1.27754 479.237 1.43885 479.033 1.64223C478.83 1.84561 478.669 2.08706 478.559 2.3528C478.449 2.61854 478.392 2.90336 478.392 3.19098V13.811C478.392 14.0986 478.449 14.3834 478.559 14.6492C478.669 14.9149 478.83 15.1564 479.033 15.3597C479.237 15.5631 479.478 15.7244 479.744 15.8345C480.01 15.9445 480.294 16.0011 480.582 16.001H491.192C491.774 16.0015 492.332 15.7713 492.745 15.3608C493.157 14.9502 493.39 14.3929 493.392 13.811V3.19098C493.39 2.60907 493.157 2.05173 492.745 1.64119C492.332 1.23065 491.774 1.00042 491.192 1.00098V1.00098Z" fill="#E6E6E6"/>
<path d="M541.692 1.50098H531.082C530.794 1.50089 530.51 1.55748 530.244 1.66751C529.978 1.77754 529.737 1.93885 529.533 2.14223C529.33 2.34561 529.169 2.58706 529.059 2.8528C528.949 3.11854 528.892 3.40336 528.892 3.69098V14.311C528.892 14.5986 528.949 14.8834 529.059 15.1492C529.169 15.4149 529.33 15.6564 529.533 15.8597C529.737 16.0631 529.978 16.2244 530.244 16.3345C530.51 16.4445 530.794 16.5011 531.082 16.501H541.692C542.274 16.5015 542.832 16.2713 543.245 15.8608C543.657 15.4502 543.89 14.8929 543.892 14.311V3.69098C543.89 3.10907 543.657 2.55173 543.245 2.14119C542.832 1.73065 542.274 1.50042 541.692 1.50098V1.50098Z" fill="#E6E6E6"/>
<path d="M326.77 5.54077H241.96C241.252 5.54077 240.573 5.82208 240.072 6.3228C239.572 6.82352 239.29 7.50264 239.29 8.21077C239.29 8.9189 239.572 9.59803 240.072 10.0988C240.573 10.5995 241.252 10.8808 241.96 10.8808H326.77C327.478 10.8808 328.158 10.5995 328.658 10.0988C329.159 9.59803 329.44 8.9189 329.44 8.21077C329.44 7.50264 329.159 6.82352 328.658 6.3228C328.158 5.82208 327.478 5.54077 326.77 5.54077V5.54077Z" fill="#E6E6E6"/>
</svg>
