<svg width="302" height="106" viewBox="0 0 302 106" fill="none" xmlns="http://www.w3.org/2000/svg">
<path d="M110.328 14.3656C95.6275 13.0691 80.8973 16.5024 68.285 24.165C58.7921 30.0492 50.8871 38.1715 45.2624 47.8204C39.6377 57.4693 36.4651 68.3504 36.0224 79.5102C35.9531 81.4189 38.9165 81.901 38.9866 79.9721C39.5048 66.3399 44.2229 53.201 52.4953 42.3533C59.1987 33.7129 67.9642 26.8939 77.988 22.5218C88.0118 18.1497 98.973 16.3645 109.866 17.3299C111.782 17.5045 112.255 14.5412 110.328 14.3656L110.328 14.3656Z" fill="white"/>
<path d="M16.1994 79.2734L23.3226 104.018C23.4057 104.233 23.5369 104.426 23.7063 104.583C23.8756 104.739 24.0786 104.854 24.2995 104.92C24.5205 104.986 24.7536 105 24.9808 104.961C25.2081 104.923 25.4235 104.833 25.6106 104.698L47.2667 86.3837C48.7324 85.1442 46.9744 82.7119 45.4972 83.9611L23.8411 102.276L26.1291 102.956L19.0058 78.2111C18.4709 76.353 15.6688 77.4301 16.1994 79.2734V79.2734Z" fill="white"/>
<path d="M124.243 18.5002L125.319 18.5903C126.132 18.6583 126.869 18.5915 127.528 18.3898C128.187 18.188 128.75 17.882 129.218 17.4715C129.702 17.0625 130.081 16.5643 130.355 15.9771C130.646 15.3753 130.822 14.7077 130.884 13.9743C130.944 13.2568 130.88 12.5771 130.693 11.9353C130.506 11.2934 130.208 10.7306 129.799 10.2468C129.406 9.76433 128.901 9.36885 128.284 9.06037C127.668 8.75188 126.961 8.56428 126.164 8.49756L125.088 8.40749L124.243 18.5002ZM120.732 4.04504L127.668 4.62552C128.896 4.72827 130.023 5.07149 131.05 5.65516C132.093 6.24018 132.978 6.9806 133.706 7.87642C134.451 8.75763 135.009 9.76766 135.379 10.9065C135.751 12.0294 135.887 13.1888 135.786 14.3846C135.688 15.5645 135.361 16.6851 134.807 17.7466C134.269 18.7934 133.56 19.6974 132.677 20.4584C131.81 21.2208 130.814 21.8038 129.689 22.2073C128.579 22.6122 127.403 22.7626 126.159 22.6585L119.223 22.078L120.732 4.04504ZM142.495 11.6707L141.469 23.9398L137.14 23.5775L138.166 11.3084L142.495 11.6707ZM138.274 6.57284C138.302 6.23801 138.392 5.93244 138.543 5.65612C138.696 5.36385 138.894 5.11545 139.135 4.91091C139.377 4.70637 139.647 4.55234 139.945 4.4488C140.258 4.3466 140.583 4.30951 140.917 4.33754C141.252 4.36556 141.558 4.45536 141.834 4.60693C142.126 4.75984 142.375 4.95724 142.579 5.19915C142.784 5.44105 142.937 5.71881 143.039 6.03242C143.143 6.3301 143.181 6.64635 143.153 6.98118C143.125 7.31601 143.034 7.62955 142.881 7.92182C142.73 8.19814 142.533 8.43857 142.291 8.64311C142.049 8.84764 141.771 9.00101 141.458 9.10321C141.16 9.20675 140.844 9.2445 140.509 9.21648C140.174 9.18846 139.861 9.09799 139.568 8.94508C139.292 8.79351 139.052 8.59677 138.847 8.35487C138.643 8.11297 138.489 7.84318 138.385 7.54551C138.283 7.23189 138.246 6.90767 138.274 6.57284ZM152.843 15.7158C152.08 15.2345 151.316 14.9618 150.551 14.8978C150.152 14.8644 149.819 14.9168 149.55 15.0549C149.298 15.1943 149.16 15.3995 149.137 15.6706C149.125 15.8141 149.131 15.935 149.155 16.0333C149.196 16.1171 149.277 16.2041 149.398 16.2945C149.535 16.3862 149.728 16.4747 149.978 16.5598C150.244 16.6463 150.588 16.7553 151.01 16.887C152.186 17.2263 153.043 17.7315 153.581 18.4027C154.12 19.058 154.35 19.8639 154.27 20.8206C154.21 21.5381 154.012 22.1718 153.677 22.7218C153.342 23.2717 152.903 23.7247 152.359 24.0806C151.817 24.4205 151.178 24.6641 150.444 24.8114C149.707 24.9745 148.909 25.0201 148.048 24.948C146.39 24.8093 144.795 24.2021 143.263 23.1266L145.098 20.1974C146.24 21.128 147.353 21.6386 148.438 21.7293C148.836 21.7627 149.17 21.7024 149.44 21.5483C149.71 21.3943 149.856 21.1817 149.879 20.9107C149.892 20.7512 149.879 20.6217 149.839 20.522C149.817 20.4077 149.745 20.3054 149.624 20.215C149.505 20.1087 149.32 20.0129 149.07 19.9278C148.838 19.8281 148.525 19.7217 148.133 19.6086C146.817 19.2254 145.909 18.7481 145.411 18.1766C144.931 17.5904 144.73 16.827 144.808 15.8863C144.866 15.2007 145.045 14.5975 145.345 14.0767C145.647 13.54 146.053 13.1004 146.563 12.7578C147.074 12.4151 147.672 12.1682 148.359 12.017C149.062 11.8671 149.828 11.8268 150.657 11.8962C152.013 12.0096 153.306 12.3828 154.538 13.0157L152.843 15.7158ZM165.589 17.6014C164.882 17.0284 164.146 16.7099 163.381 16.6459C162.966 16.6112 162.569 16.6502 162.191 16.7631C161.828 16.8772 161.5 17.0584 161.206 17.3068C160.914 17.5392 160.672 17.8321 160.482 18.1855C160.309 18.5243 160.204 18.9169 160.167 19.3633C160.131 19.7938 160.169 20.1984 160.282 20.5771C160.412 20.9413 160.593 21.2695 160.826 21.5619C161.075 21.8397 161.378 22.0657 161.732 22.2399C162.087 22.4141 162.472 22.5185 162.886 22.5532C163.699 22.6213 164.48 22.4057 165.228 21.9063L164.92 25.5894C163.813 25.9624 162.781 26.1089 161.825 26.0288C160.932 25.9541 160.091 25.7312 159.304 25.3602C158.532 24.9906 157.858 24.5007 157.283 23.8906C156.725 23.2659 156.296 22.5476 155.994 21.7356C155.694 20.9077 155.585 20.0074 155.667 19.0348C155.748 18.0622 155.997 17.192 156.415 16.4242C156.834 15.6404 157.37 14.9868 158.024 14.4635C158.679 13.9243 159.435 13.5299 160.291 13.2804C161.164 13.0163 162.078 12.9243 163.035 13.0044C164.087 13.0925 165.041 13.3971 165.897 13.9182L165.589 17.6014ZM171.493 20.2149C171.458 20.6294 171.498 21.0181 171.612 21.3809C171.743 21.7291 171.918 22.0407 172.136 22.3158C172.37 22.5923 172.648 22.8163 172.971 22.9878C173.309 23.1607 173.67 23.2631 174.053 23.2951C174.436 23.3272 174.8 23.2854 175.147 23.17C175.51 23.0558 175.822 22.8812 176.082 22.6461C176.359 22.4124 176.583 22.1341 176.754 21.8113C176.943 21.4738 177.054 21.1058 177.087 20.7072C177.119 20.3245 177.07 19.9591 176.938 19.6109C176.824 19.2482 176.65 18.9285 176.416 18.6521C176.199 18.377 175.92 18.153 175.581 17.9801C175.259 17.8086 174.906 17.7068 174.523 17.6748C174.141 17.6428 173.768 17.6838 173.405 17.798C173.058 17.9134 172.747 18.0881 172.47 18.3218C172.21 18.5569 171.986 18.8352 171.798 19.1567C171.627 19.4795 171.525 19.8322 171.493 20.2149ZM166.929 19.7847C167.005 18.8759 167.259 18.0462 167.691 17.2957C168.125 16.5291 168.692 15.8862 169.394 15.3669C170.097 14.8317 170.909 14.4341 171.83 14.174C172.767 13.9152 173.769 13.8305 174.838 13.9199C175.89 14.008 176.848 14.2568 177.713 14.6664C178.595 15.0613 179.339 15.5811 179.943 16.2258C180.565 16.8558 181.025 17.5927 181.323 18.4366C181.623 19.2645 181.733 20.1647 181.651 21.1373C181.57 22.1099 181.304 22.9868 180.853 23.7679C180.42 24.5345 179.851 25.1853 179.148 25.7206C178.447 26.2398 177.62 26.6202 176.669 26.8617C175.733 27.1045 174.731 27.1812 173.663 27.0918C172.611 27.0038 171.651 26.7629 170.785 26.3693C169.919 25.9757 169.184 25.4566 168.579 24.8119C167.991 24.1686 167.547 23.425 167.249 22.5812C166.951 21.7214 166.845 20.7892 166.929 19.7847ZM186.945 15.3908L189.336 21.925L192.828 15.8832L197.659 16.2876L190.247 28.0222L187.353 27.78L182.066 14.9825L186.945 15.3908ZM206.693 21.4268C206.6 20.8089 206.346 20.298 205.93 19.8939C205.514 19.4898 204.987 19.2611 204.35 19.2077C203.68 19.1516 203.115 19.281 202.655 19.5957C202.211 19.9118 201.907 20.3841 201.742 21.0125L206.693 21.4268ZM201.412 23.5137C201.256 25.3792 202.055 26.3853 203.809 26.5321C204.749 26.6108 205.491 26.2876 206.033 25.5623L210.219 25.9126C209.139 28.648 206.909 29.8743 203.529 29.5914C202.492 29.5047 201.556 29.2738 200.721 28.8988C199.886 28.5079 199.182 27.9994 198.608 27.3733C198.051 26.7486 197.638 26.0237 197.37 25.1984C197.101 24.3732 197.009 23.4663 197.091 22.4778C197.177 21.4573 197.413 20.5539 197.8 19.7674C198.188 18.965 198.701 18.3015 199.339 17.7769C199.977 17.2522 200.724 16.8731 201.578 16.6396C202.45 16.3914 203.412 16.3114 204.464 16.3995C205.501 16.4862 206.42 16.7237 207.222 17.112C208.026 17.4843 208.69 17.9895 209.215 18.6274C209.739 19.2654 210.117 20.0276 210.348 20.9139C210.58 21.7843 210.652 22.7537 210.562 23.8219L210.524 24.2763L201.412 23.5137ZM213.095 17.5794L217.424 17.9417L217.256 19.9507C217.779 19.2559 218.392 18.7453 219.094 18.4186C219.797 18.0761 220.595 17.9422 221.488 18.0169C221.599 18.0262 221.719 18.0362 221.846 18.0469C221.99 18.0589 222.148 18.0882 222.321 18.1348L221.974 22.2723C221.424 21.9373 220.815 21.7417 220.145 21.6857C219.14 21.6016 218.358 21.8412 217.797 22.4044C217.253 22.9529 216.933 23.8012 216.837 24.9492L216.397 30.2108L212.068 29.8485L213.095 17.5794ZM231.383 19.11L235.712 19.4723L235.586 20.9791C236.861 19.9458 238.232 19.4905 239.698 19.6133C241.516 19.7654 242.839 20.6468 243.668 22.2575C244.77 20.7923 246.222 20.1351 248.023 20.2859C248.597 20.334 249.132 20.467 249.628 20.6851C250.124 20.8873 250.541 21.187 250.877 21.5844C251.214 21.9659 251.463 22.4523 251.622 23.0437C251.797 23.6363 251.851 24.3392 251.783 25.1524L251.116 33.1166L246.787 32.7543L247.294 26.7034C247.346 26.0816 247.34 25.5674 247.278 25.1608C247.232 24.7555 247.13 24.4339 246.974 24.196C246.833 23.9594 246.654 23.7919 246.438 23.6935C246.221 23.5951 245.985 23.5353 245.73 23.5139C244.343 23.3978 243.565 24.3522 243.395 26.3771L242.889 32.428L238.56 32.0657L239.066 26.0148C239.118 25.393 239.121 24.8795 239.075 24.4742C239.03 24.053 238.938 23.7161 238.798 23.4636C238.675 23.2124 238.497 23.037 238.264 22.9372C238.033 22.8215 237.758 22.7504 237.439 22.7237C237.168 22.701 236.91 22.7195 236.664 22.7792C236.418 22.8389 236.189 22.9803 235.978 23.2035C235.784 23.412 235.614 23.7189 235.467 24.1241C235.338 24.5147 235.247 25.0369 235.192 25.6906L234.685 31.7414L230.357 31.3791L231.383 19.11ZM258.216 27.473C258.181 27.8876 258.221 28.2763 258.335 28.639C258.466 28.9872 258.641 29.2989 258.859 29.574C259.093 29.8504 259.371 30.0744 259.694 30.246C260.033 30.4188 260.393 30.5213 260.776 30.5533C261.159 30.5853 261.523 30.5436 261.87 30.4281C262.233 30.314 262.545 30.1394 262.805 29.9043C263.082 29.6705 263.306 29.3922 263.477 29.0694C263.666 28.732 263.777 28.3639 263.81 27.9653C263.842 27.5827 263.793 27.2173 263.661 26.8691C263.547 26.5063 263.373 26.1867 263.139 25.9102C262.922 25.6351 262.643 25.4111 262.305 25.2383C261.982 25.0667 261.629 24.965 261.246 24.9329C260.864 24.9009 260.491 24.942 260.128 25.0561C259.781 25.1716 259.47 25.3462 259.193 25.58C258.933 25.815 258.709 26.0933 258.521 26.4148C258.35 26.7376 258.248 27.0904 258.216 27.473ZM253.652 27.0429C253.728 26.1341 253.982 25.3044 254.414 24.5538C254.848 23.7873 255.415 23.1444 256.117 22.6251C256.82 22.0899 257.632 21.6922 258.553 21.4321C259.49 21.1733 260.492 21.0887 261.561 21.1781C262.613 21.2661 263.571 21.5149 264.436 21.9245C265.318 22.3195 266.062 22.8392 266.666 23.4839C267.288 24.1139 267.748 24.8509 268.046 25.6947C268.346 26.5226 268.456 27.4229 268.374 28.3955C268.293 29.3681 268.027 30.245 267.576 31.0261C267.143 31.7926 266.574 32.4435 265.871 32.9787C265.17 33.498 264.343 33.8784 263.392 34.1199C262.456 34.3627 261.454 34.4394 260.386 34.35C259.334 34.2619 258.374 34.0211 257.508 33.6275C256.642 33.2338 255.907 32.7147 255.302 32.0701C254.714 31.4267 254.27 30.6832 253.972 29.8393C253.674 28.9795 253.568 28.0474 253.652 27.0429ZM270.902 22.4175L275.231 22.7798L275.063 24.7888C275.587 24.094 276.2 23.5834 276.901 23.2567C277.604 22.9142 278.402 22.7803 279.295 22.855C279.407 22.8643 279.526 22.8743 279.654 22.885C279.797 22.897 279.956 22.9263 280.128 22.9729L279.782 27.1104C279.232 26.7754 278.622 26.5798 277.953 26.5238C276.948 26.4397 276.165 26.6793 275.604 27.2425C275.061 27.791 274.741 28.6393 274.645 29.7873L274.204 35.0489L269.876 34.6866L270.902 22.4175ZM290.309 28.425C290.217 27.8071 289.962 27.2961 289.547 26.892C289.131 26.488 288.604 26.2592 287.966 26.2059C287.297 26.1498 286.732 26.2792 286.272 26.5939C285.828 26.91 285.524 27.3822 285.359 28.0107L290.309 28.425ZM285.029 30.5119C284.873 32.3774 285.672 33.3835 287.425 33.5303C288.366 33.609 289.108 33.2857 289.65 32.5604L293.835 32.9107C292.756 35.6462 290.526 36.8725 287.145 36.5896C286.109 36.5028 285.173 36.272 284.337 35.897C283.503 35.506 282.799 34.9975 282.225 34.3715C281.667 33.7468 281.254 33.0218 280.986 32.1966C280.718 31.3714 280.625 30.4645 280.708 29.4759C280.794 28.4555 281.03 27.552 281.417 26.7656C281.805 25.9632 282.318 25.2996 282.956 24.775C283.594 24.2504 284.34 23.8713 285.195 23.6378C286.067 23.3896 287.029 23.3096 288.081 23.3976C289.117 23.4844 290.037 23.7219 290.839 24.1102C291.643 24.4825 292.307 24.9876 292.832 25.6256C293.356 26.2636 293.734 27.0258 293.965 27.9121C294.197 28.7825 294.268 29.7518 294.179 30.8201L294.141 31.2745L285.029 30.5119Z" fill="white"/>
<path d="M117.134 24.3115L294.469 39.1533L294.369 40.3491L117.033 25.5073L117.134 24.3115Z" fill="white"/>
</svg>
