<svg width="673" height="713" viewBox="0 0 673 713" fill="none" xmlns="http://www.w3.org/2000/svg">
<g clip-path="url(#clip0_10_906)">
<path d="M676.623 395.654L289.276 695.094C283.761 699.348 276.755 701.392 269.797 700.777C262.838 700.162 256.495 696.938 252.159 691.813L88.5676 498.008C84.2439 492.873 82.2846 486.261 83.1194 479.621C83.9543 472.982 87.5152 466.857 93.021 462.591L480.367 163.152C485.883 158.898 492.888 156.854 499.847 157.469C506.805 158.084 513.148 161.307 517.484 166.432L681.076 360.238C685.4 365.372 687.359 371.985 686.524 378.624C685.689 385.264 682.128 391.388 676.623 395.654Z" fill="white"/>
<path d="M104.047 475.654C102.258 477.04 101.101 479.03 100.83 481.187C100.559 483.344 101.195 485.492 102.6 487.16L266.191 680.965C267.6 682.63 269.661 683.677 271.921 683.877C274.182 684.077 276.458 683.413 278.249 682.031L665.596 382.591C667.385 381.206 668.541 379.216 668.812 377.059C669.084 374.902 668.447 372.754 667.043 371.086L503.451 177.28C502.043 175.615 499.982 174.568 497.721 174.369C495.461 174.169 493.185 174.833 491.393 176.215L104.047 475.654Z" fill="#E4E4E4"/>
<path d="M676.623 395.654L289.276 695.094C283.761 699.348 276.755 701.392 269.797 700.777C262.838 700.162 256.495 696.938 252.159 691.813L88.5676 498.008C84.2439 492.873 82.2846 486.261 83.1194 479.621C83.9543 472.982 87.5152 466.857 93.021 462.591L480.367 163.152C485.883 158.898 492.888 156.854 499.847 157.469C506.805 158.084 513.148 161.307 517.484 166.432L681.076 360.238C685.4 365.372 687.359 371.985 686.524 378.624C685.689 385.264 682.128 391.388 676.623 395.654ZM94.7172 464.601C89.7833 468.424 86.5922 473.912 85.844 479.862C85.0959 485.812 86.8518 491.738 90.7265 496.339L254.318 690.144C258.204 694.737 263.888 697.626 270.124 698.177C276.359 698.728 282.637 696.896 287.58 693.084L674.926 393.645C679.86 389.822 683.051 384.333 683.799 378.384C684.547 372.434 682.792 366.508 678.917 361.907L515.326 168.101C511.44 163.509 505.755 160.62 499.52 160.069C493.284 159.518 487.006 161.349 482.064 165.162L94.7172 464.601Z" fill="#CACACA"/>
<path d="M542.36 322.957L234.636 560.844C232.157 562.755 229.138 563.908 225.992 564.144C222.846 564.38 219.727 563.688 217.06 562.163L90.9674 489.818C88.8994 488.631 87.1746 486.982 85.9379 485.008C84.7012 483.035 83.9888 480.794 83.8606 478.476C83.7323 476.158 84.192 473.829 85.2009 471.685C86.2098 469.541 87.7385 467.646 89.6585 466.157L483.826 160.511C485.721 159.042 487.943 158.012 490.31 157.506C492.676 156.999 495.12 157.03 497.441 157.595C499.762 158.161 501.895 159.246 503.663 160.761C505.432 162.276 506.787 164.177 507.617 166.31L507.676 166.294L547.678 307.652C548.452 310.378 548.36 313.282 547.415 316.003C546.469 318.724 544.711 321.142 542.36 322.957ZM485.539 162.508L91.3578 468.165C89.783 469.385 88.5291 470.94 87.7016 472.698C86.8741 474.456 86.4971 476.367 86.6023 478.268C86.7074 480.17 87.2917 482.007 88.306 483.626C89.3204 485.245 90.735 486.598 92.4312 487.571L218.523 559.916C220.711 561.167 223.27 561.735 225.85 561.541C228.43 561.347 230.906 560.402 232.94 558.834L540.663 320.948C542.592 319.459 544.034 317.475 544.81 315.243C545.585 313.012 545.66 310.63 545.026 308.394L505.378 168.289L505.908 168.141L505.378 168.289C504.843 166.398 503.819 164.676 502.399 163.277C500.978 161.878 499.206 160.846 497.24 160.273C495.273 159.7 493.175 159.604 491.133 159.994C489.091 160.384 487.169 161.248 485.539 162.508Z" fill="#CACACA"/>
<path d="M377.05 581.019L281.176 655.134C280.48 655.673 279.684 656.079 278.832 656.329C277.979 656.578 277.088 656.667 276.209 656.59C275.331 656.513 274.481 656.271 273.709 655.878C272.938 655.486 272.259 654.95 271.712 654.302C271.165 653.655 270.761 652.907 270.522 652.102C270.283 651.298 270.215 650.452 270.321 649.614C270.427 648.775 270.705 647.96 271.139 647.215C271.573 646.471 272.155 645.811 272.852 645.273L368.726 571.158C370.131 570.074 371.916 569.553 373.688 569.711C375.461 569.868 377.076 570.691 378.179 571.997C379.282 573.304 379.783 574.989 379.571 576.68C379.359 578.372 378.452 579.932 377.05 581.019Z" fill="white"/>
<path d="M419.176 416.525C421.99 419.852 424.073 423.692 425.304 427.826C426.535 431.96 426.89 436.306 426.351 440.617C425.811 444.927 424.386 449.117 422.158 452.947C419.929 456.776 416.941 460.171 413.364 462.936C409.786 465.702 405.69 467.784 401.309 469.063C396.928 470.343 392.348 470.795 387.832 470.394C383.315 469.993 378.95 468.746 374.985 466.725C371.021 464.704 367.535 461.948 364.728 458.616" fill="#CACACA"/>
<path d="M749.134 697.367L270.124 819.049C263.308 820.773 256.124 819.872 250.148 816.542C244.173 813.213 239.894 807.728 238.251 801.291L176.449 558.007C174.821 551.565 175.964 544.703 179.626 538.926C183.288 533.148 189.17 528.927 195.983 527.189L674.993 405.506C681.81 403.783 688.994 404.684 694.969 408.013C700.944 411.343 705.223 416.827 706.867 423.265L768.668 666.549C770.296 672.99 769.154 679.852 765.492 685.63C761.83 691.407 755.947 695.628 749.134 697.367Z" fill="white"/>
<path d="M200.149 543.587C197.935 544.151 196.024 545.523 194.835 547.4C193.645 549.276 193.274 551.506 193.803 553.598L255.604 796.882C256.138 798.974 257.528 800.756 259.469 801.837C261.41 802.919 263.744 803.211 265.959 802.651L744.968 680.969C747.182 680.404 749.093 679.033 750.282 677.156C751.472 675.279 751.843 673.05 751.314 670.957L689.513 427.673C688.979 425.582 687.589 423.8 685.648 422.718C683.707 421.637 681.373 421.344 679.158 421.904L200.149 543.587Z" fill="#EF673F"/>
<path d="M749.134 697.367L270.124 819.049C263.308 820.773 256.124 819.872 250.148 816.542C244.173 813.213 239.894 807.728 238.251 801.291L176.449 558.007C174.821 551.565 175.964 544.703 179.626 538.926C183.288 533.148 189.17 528.927 195.983 527.189L674.993 405.506C681.81 403.783 688.994 404.684 694.969 408.013C700.944 411.343 705.223 416.827 706.867 423.265L768.668 666.549C770.296 672.99 769.154 679.852 765.492 685.63C761.83 691.407 755.947 695.628 749.134 697.367ZM196.624 529.712C190.519 531.27 185.247 535.052 181.965 540.229C178.684 545.407 177.66 551.556 179.119 557.328L240.92 800.613C242.393 806.381 246.228 811.297 251.582 814.28C256.937 817.263 263.375 818.071 269.484 816.527L748.493 694.844C754.598 693.286 759.87 689.503 763.152 684.326C766.434 679.149 767.457 672.999 765.998 667.227L704.197 423.943C702.724 418.174 698.89 413.259 693.535 410.276C688.18 407.292 681.742 406.484 675.634 408.029L196.624 529.712Z" fill="#3F3D56"/>
<path d="M660.524 577.159L279.98 673.829C276.916 674.603 273.701 674.464 270.774 673.432C267.847 672.401 265.351 670.525 263.626 668.063L182.196 551.424C180.86 549.511 180.036 547.309 179.792 545.002C179.547 542.695 179.891 540.35 180.793 538.166C181.695 535.982 183.129 534.022 184.975 532.45C186.821 530.879 189.025 529.742 191.401 529.135L679.256 404.45C681.601 403.852 684.047 403.786 686.393 404.26C688.739 404.733 690.919 405.732 692.754 407.174C694.589 408.617 696.027 410.462 696.95 412.558C697.873 414.654 698.255 416.942 698.064 419.234L698.124 419.243L672.012 565.189C671.511 568.005 670.155 570.64 668.112 572.768C666.07 574.896 663.431 576.423 660.524 577.159ZM679.917 406.968L192.045 531.656C190.096 532.154 188.289 533.087 186.775 534.376C185.261 535.665 184.084 537.273 183.345 539.064C182.605 540.855 182.323 542.778 182.523 544.67C182.724 546.562 183.4 548.369 184.495 549.938L265.925 666.577C267.34 668.596 269.387 670.135 271.788 670.981C274.189 671.828 276.826 671.941 279.339 671.306L659.883 574.637C662.268 574.033 664.432 572.78 666.107 571.035C667.782 569.289 668.895 567.128 669.306 564.819L695.186 420.165L695.727 420.24L695.186 420.165C695.535 418.213 695.372 416.222 694.711 414.371C694.05 412.52 692.912 410.866 691.398 409.558C689.885 408.25 688.044 407.329 686.04 406.877C684.037 406.425 681.933 406.456 679.917 406.968Z" fill="#3F3D56"/>
<path d="M508.919 614.329C511.062 622.766 509.571 631.759 504.772 639.329C499.974 646.899 492.262 652.425 483.334 654.694C474.405 656.962 464.99 655.786 457.161 651.424C449.332 647.062 443.729 639.871 441.586 631.434" fill="#3F3D56"/>
</g>
<defs>
<clipPath id="clip0_10_906">
<rect width="846" height="688" fill="white" transform="translate(0 208.293) rotate(-14.2533)"/>
</clipPath>
</defs>
</svg>
