<?xml version="1.0" standalone="no"?><svg xmlns="http://www.w3.org/2000/svg" viewBox="0 0 1440 320"><path fill="#15304B" fill-opacity="1" d="M0,96L30,112C60,128,120,160,180,176C240,192,300,192,360,208C420,224,480,256,540,234.7C600,213,660,139,720,112C780,85,840,107,900,112C960,117,1020,107,1080,122.7C1140,139,1200,181,1260,181.3C1320,181,1380,139,1410,117.3L1440,96L1440,320L1410,320C1380,320,1320,320,1260,320C1200,320,1140,320,1080,320C1020,320,960,320,900,320C840,320,780,320,720,320C660,320,600,320,540,320C480,320,420,320,360,320C300,320,240,320,180,320C120,320,60,320,30,320L0,320Z"></path></svg>