<svg width="523" height="30" viewBox="0 0 523 30" fill="none" xmlns="http://www.w3.org/2000/svg">
<path d="M8.45661 23.2901C13.1271 23.2901 16.9132 19.4196 16.9132 14.6451C16.9132 9.87053 13.1271 6 8.45661 6C3.78615 6 0 9.87053 0 14.6451C0 19.4196 3.78615 23.2901 8.45661 23.2901Z" fill="#E6E6E6"/>
<path d="M37.6705 23.2901C42.3409 23.2901 46.1271 19.4196 46.1271 14.6451C46.1271 9.87053 42.3409 6 37.6705 6C33 6 29.2139 9.87053 29.2139 14.6451C29.2139 19.4196 33 23.2901 37.6705 23.2901Z" fill="#E6E6E6"/>
<path d="M66.8841 23.2901C71.5546 23.2901 75.3407 19.4196 75.3407 14.6451C75.3407 9.87053 71.5546 6 66.8841 6C62.2136 6 58.4275 9.87053 58.4275 14.6451C58.4275 19.4196 62.2136 23.2901 66.8841 23.2901Z" fill="#E6E6E6"/>
<path d="M100.196 21.4779C100.062 21.4781 99.9306 21.4515 99.8078 21.3999C99.685 21.3482 99.5738 21.2725 99.4808 21.1771L93.7748 15.3441C93.5919 15.1573 93.4895 14.9063 93.4895 14.6449C93.4895 14.3835 93.5919 14.1325 93.7748 13.9457L99.4808 8.11313C99.6669 7.92655 99.9192 7.82098 100.183 7.81935C100.446 7.81773 100.7 7.92018 100.888 8.10445C101.076 8.28872 101.185 8.53992 101.189 8.80341C101.193 9.0669 101.093 9.32139 100.911 9.51157L95.8885 14.6449L100.911 19.7787C101.048 19.9194 101.141 20.0976 101.178 20.2909C101.215 20.4843 101.194 20.6842 101.117 20.8657C101.041 21.0471 100.913 21.202 100.749 21.3109C100.585 21.4198 100.393 21.4779 100.196 21.4779V21.4779Z" fill="#E6E6E6"/>
<path d="M109.784 21.4779C109.587 21.4779 109.395 21.4198 109.231 21.3109C109.067 21.202 108.939 21.0471 108.862 20.8657C108.786 20.6843 108.765 20.4843 108.802 20.291C108.838 20.0976 108.931 19.9194 109.069 19.7787L114.091 14.6449L109.069 9.51162C108.976 9.41806 108.902 9.30692 108.852 9.18465C108.802 9.06238 108.776 8.93139 108.777 8.79924C108.778 8.6671 108.805 8.53644 108.857 8.4148C108.908 8.29316 108.983 8.18295 109.078 8.09055C109.172 7.99815 109.284 7.92537 109.407 7.87645C109.53 7.82754 109.661 7.80344 109.793 7.80555C109.925 7.80765 110.056 7.83592 110.177 7.88872C110.298 7.94152 110.407 8.0178 110.499 8.11316L116.204 13.9457C116.387 14.1325 116.49 14.3835 116.49 14.6449C116.49 14.9063 116.387 15.1573 116.204 15.3441L110.499 21.1771C110.406 21.2725 110.295 21.3482 110.172 21.3999C110.049 21.4516 109.917 21.4781 109.784 21.4779V21.4779Z" fill="#E6E6E6"/>
<rect x="147.5" y="0.5" width="375" height="29" rx="4.5" stroke="#E6E6E6"/>
<path d="M160.233 20V9.81818H161.406V13.5767H161.506C161.592 13.4441 161.711 13.2751 161.864 13.0696C162.019 12.8608 162.241 12.6752 162.53 12.5128C162.821 12.3471 163.216 12.2642 163.713 12.2642C164.356 12.2642 164.923 12.425 165.413 12.7464C165.904 13.0679 166.287 13.5237 166.562 14.1136C166.837 14.7036 166.974 15.3996 166.974 16.2017C166.974 17.0104 166.837 17.7114 166.562 18.3047C166.287 18.8946 165.906 19.352 165.418 19.6768C164.931 19.9983 164.369 20.1591 163.733 20.1591C163.242 20.1591 162.85 20.0779 162.555 19.9155C162.26 19.7498 162.033 19.5625 161.874 19.3537C161.714 19.1416 161.592 18.9659 161.506 18.8267H161.366V20H160.233ZM161.386 16.1818C161.386 16.7585 161.471 17.2673 161.64 17.7081C161.809 18.1456 162.056 18.4886 162.381 18.7372C162.705 18.9825 163.103 19.1051 163.574 19.1051C164.064 19.1051 164.474 18.9759 164.802 18.7173C165.133 18.4555 165.382 18.1042 165.548 17.6634C165.717 17.2192 165.801 16.7254 165.801 16.1818C165.801 15.6449 165.718 15.161 165.553 14.7301C165.39 14.2959 165.143 13.9529 164.812 13.701C164.484 13.4458 164.071 13.3182 163.574 13.3182C163.097 13.3182 162.696 13.4392 162.371 13.6811C162.046 13.9197 161.801 14.2545 161.635 14.6854C161.469 15.1129 161.386 15.6117 161.386 16.1818ZM170.24 20L167.913 12.3636H169.146L170.796 18.2102H170.876L172.507 12.3636H173.759L175.37 18.1903H175.45L177.1 12.3636H178.333L176.007 20H174.853L173.183 14.1335H173.063L171.393 20H170.24ZM181.058 9.81818V20H179.884V9.81818H181.058ZM185.454 20.179C184.97 20.179 184.531 20.0878 184.136 19.9055C183.742 19.7199 183.429 19.4531 183.197 19.1051C182.965 18.7538 182.849 18.3295 182.849 17.8324C182.849 17.3949 182.935 17.0402 183.107 16.7685C183.28 16.4934 183.51 16.2779 183.798 16.1222C184.087 15.9664 184.405 15.8504 184.753 15.7741C185.104 15.6946 185.457 15.6316 185.812 15.5852C186.276 15.5256 186.652 15.4808 186.94 15.451C187.232 15.4179 187.444 15.3632 187.577 15.2869C187.713 15.2107 187.781 15.0781 187.781 14.8892V14.8494C187.781 14.3589 187.646 13.9777 187.378 13.706C187.113 13.4342 186.71 13.2983 186.17 13.2983C185.61 13.2983 185.17 13.4209 184.852 13.6662C184.534 13.9115 184.31 14.1733 184.181 14.4517L183.067 14.054C183.266 13.59 183.531 13.2287 183.863 12.9702C184.198 12.7083 184.562 12.526 184.957 12.4233C185.354 12.3172 185.746 12.2642 186.13 12.2642C186.375 12.2642 186.657 12.294 186.975 12.3537C187.297 12.41 187.607 12.5277 187.905 12.7067C188.206 12.8857 188.457 13.1558 188.656 13.517C188.854 13.8783 188.954 14.3622 188.954 14.9688V20H187.781V18.9659H187.721C187.641 19.1316 187.509 19.3089 187.323 19.4979C187.138 19.6868 186.891 19.8475 186.582 19.9801C186.274 20.1127 185.898 20.179 185.454 20.179ZM185.633 19.125C186.097 19.125 186.488 19.0339 186.806 18.8516C187.128 18.6693 187.37 18.4339 187.532 18.1456C187.698 17.8572 187.781 17.554 187.781 17.2358V16.1619C187.731 16.2216 187.621 16.2763 187.452 16.326C187.287 16.3724 187.094 16.4138 186.876 16.4503C186.66 16.4834 186.45 16.5133 186.244 16.5398C186.042 16.563 185.878 16.5829 185.752 16.5994C185.447 16.6392 185.162 16.7038 184.897 16.7933C184.635 16.8795 184.423 17.0104 184.261 17.1861C184.102 17.3584 184.022 17.5937 184.022 17.892C184.022 18.2997 184.173 18.608 184.474 18.8168C184.779 19.0223 185.165 19.125 185.633 19.125ZM193.979 20.1591C193.343 20.1591 192.781 19.9983 192.294 19.6768C191.806 19.352 191.425 18.8946 191.15 18.3047C190.875 17.7114 190.737 17.0104 190.737 16.2017C190.737 15.3996 190.875 14.7036 191.15 14.1136C191.425 13.5237 191.808 13.0679 192.298 12.7464C192.789 12.425 193.356 12.2642 193.999 12.2642C194.496 12.2642 194.889 12.3471 195.177 12.5128C195.469 12.6752 195.691 12.8608 195.843 13.0696C195.999 13.2751 196.12 13.4441 196.206 13.5767H196.306V9.81818H197.479V20H196.345V18.8267H196.206C196.12 18.9659 195.997 19.1416 195.838 19.3537C195.679 19.5625 195.452 19.7498 195.157 19.9155C194.862 20.0779 194.469 20.1591 193.979 20.1591ZM194.138 19.1051C194.609 19.1051 195.006 18.9825 195.331 18.7372C195.656 18.4886 195.903 18.1456 196.072 17.7081C196.241 17.2673 196.325 16.7585 196.325 16.1818C196.325 15.6117 196.243 15.1129 196.077 14.6854C195.911 14.2545 195.666 13.9197 195.341 13.6811C195.016 13.4392 194.615 13.3182 194.138 13.3182C193.641 13.3182 193.227 13.4458 192.895 13.701C192.567 13.9529 192.32 14.2959 192.154 14.7301C191.992 15.161 191.911 15.6449 191.911 16.1818C191.911 16.7254 191.994 17.2192 192.159 17.6634C192.328 18.1042 192.577 18.4555 192.905 18.7173C193.236 18.9759 193.647 19.1051 194.138 19.1051ZM200.546 22.8636C200.347 22.8636 200.17 22.8471 200.014 22.8139C199.859 22.7841 199.751 22.7543 199.691 22.7244L199.99 21.6903C200.275 21.7633 200.526 21.7898 200.745 21.7699C200.964 21.75 201.158 21.6522 201.327 21.4766C201.499 21.3042 201.657 21.0241 201.799 20.6364L202.018 20.0398L199.194 12.3636H200.467L202.575 18.4489H202.654L204.762 12.3636H206.035L202.794 21.1136C202.648 21.508 202.467 21.8345 202.252 22.093C202.036 22.3549 201.786 22.5488 201.501 22.6747C201.219 22.8007 200.901 22.8636 200.546 22.8636ZM208.677 17.2159L208.657 15.7642H208.896L212.237 12.3636H213.689L210.129 15.9631H210.03L208.677 17.2159ZM207.584 20V9.81818H208.757V20H207.584ZM212.436 20L209.453 16.2216L210.288 15.4062L213.927 20H212.436ZM217.446 20.179C216.962 20.179 216.523 20.0878 216.129 19.9055C215.734 19.7199 215.421 19.4531 215.189 19.1051C214.957 18.7538 214.841 18.3295 214.841 17.8324C214.841 17.3949 214.927 17.0402 215.099 16.7685C215.272 16.4934 215.502 16.2779 215.79 16.1222C216.079 15.9664 216.397 15.8504 216.745 15.7741C217.096 15.6946 217.449 15.6316 217.804 15.5852C218.268 15.5256 218.644 15.4808 218.933 15.451C219.224 15.4179 219.436 15.3632 219.569 15.2869C219.705 15.2107 219.773 15.0781 219.773 14.8892V14.8494C219.773 14.3589 219.638 13.9777 219.37 13.706C219.105 13.4342 218.702 13.2983 218.162 13.2983C217.602 13.2983 217.163 13.4209 216.844 13.6662C216.526 13.9115 216.303 14.1733 216.173 14.4517L215.06 14.054C215.259 13.59 215.524 13.2287 215.855 12.9702C216.19 12.7083 216.554 12.526 216.949 12.4233C217.347 12.3172 217.738 12.2642 218.122 12.2642C218.367 12.2642 218.649 12.294 218.967 12.3537C219.289 12.41 219.599 12.5277 219.897 12.7067C220.199 12.8857 220.449 13.1558 220.648 13.517C220.847 13.8783 220.946 14.3622 220.946 14.9688V20H219.773V18.9659H219.713C219.634 19.1316 219.501 19.3089 219.315 19.4979C219.13 19.6868 218.883 19.8475 218.575 19.9801C218.266 20.1127 217.89 20.179 217.446 20.179ZM217.625 19.125C218.089 19.125 218.48 19.0339 218.798 18.8516C219.12 18.6693 219.362 18.4339 219.524 18.1456C219.69 17.8572 219.773 17.554 219.773 17.2358V16.1619C219.723 16.2216 219.614 16.2763 219.445 16.326C219.279 16.3724 219.087 16.4138 218.868 16.4503C218.652 16.4834 218.442 16.5133 218.237 16.5398C218.034 16.563 217.87 16.5829 217.744 16.5994C217.439 16.6392 217.154 16.7038 216.889 16.7933C216.627 16.8795 216.415 17.0104 216.253 17.1861C216.094 17.3584 216.014 17.5937 216.014 17.892C216.014 18.2997 216.165 18.608 216.467 18.8168C216.772 19.0223 217.158 19.125 217.625 19.125ZM223.943 20.0795C223.697 20.0795 223.487 19.9917 223.311 19.8161C223.136 19.6404 223.048 19.4299 223.048 19.1847C223.048 18.9394 223.136 18.7289 223.311 18.5533C223.487 18.3776 223.697 18.2898 223.943 18.2898C224.188 18.2898 224.398 18.3776 224.574 18.5533C224.75 18.7289 224.838 18.9394 224.838 19.1847C224.838 19.3471 224.796 19.4962 224.713 19.6321C224.634 19.768 224.526 19.8774 224.39 19.9602C224.258 20.0398 224.108 20.0795 223.943 20.0795ZM230.045 20.1591C229.329 20.1591 228.713 19.9901 228.196 19.652C227.679 19.3139 227.281 18.8482 227.003 18.255C226.724 17.6617 226.585 16.9839 226.585 16.2216C226.585 15.446 226.728 14.7616 227.013 14.1683C227.301 13.5717 227.702 13.1061 228.216 12.7713C228.733 12.4332 229.336 12.2642 230.025 12.2642C230.562 12.2642 231.046 12.3636 231.477 12.5625C231.908 12.7614 232.261 13.0398 232.536 13.3977C232.811 13.7557 232.982 14.1733 233.048 14.6506H231.875C231.785 14.3026 231.586 13.9943 231.278 13.7259C230.973 13.4541 230.562 13.3182 230.045 13.3182C229.588 13.3182 229.187 13.4375 228.842 13.6761C228.501 13.9115 228.234 14.2446 228.042 14.6754C227.853 15.103 227.758 15.6051 227.758 16.1818C227.758 16.7718 227.851 17.2855 228.037 17.723C228.226 18.1605 228.491 18.5002 228.832 18.7422C229.177 18.9841 229.581 19.1051 230.045 19.1051C230.35 19.1051 230.627 19.0521 230.876 18.946C231.124 18.84 231.335 18.6875 231.507 18.4886C231.679 18.2898 231.802 18.0511 231.875 17.7727H233.048C232.982 18.2235 232.818 18.6295 232.556 18.9908C232.297 19.3487 231.954 19.6338 231.527 19.8459C231.103 20.0547 230.609 20.1591 230.045 20.1591ZM237.866 20.1591C237.176 20.1591 236.571 19.995 236.051 19.6669C235.534 19.3388 235.13 18.8797 234.838 18.2898C234.55 17.6998 234.405 17.0104 234.405 16.2216C234.405 15.4261 234.55 14.7318 234.838 14.1385C235.13 13.5452 235.534 13.0845 236.051 12.7564C236.571 12.4283 237.176 12.2642 237.866 12.2642C238.555 12.2642 239.158 12.4283 239.675 12.7564C240.196 13.0845 240.6 13.5452 240.888 14.1385C241.18 14.7318 241.326 15.4261 241.326 16.2216C241.326 17.0104 241.18 17.6998 240.888 18.2898C240.6 18.8797 240.196 19.3388 239.675 19.6669C239.158 19.995 238.555 20.1591 237.866 20.1591ZM237.866 19.1051C238.389 19.1051 238.82 18.9709 239.158 18.7024C239.496 18.4339 239.747 18.081 239.909 17.6435C240.071 17.206 240.153 16.732 240.153 16.2216C240.153 15.7112 240.071 15.2356 239.909 14.7947C239.747 14.3539 239.496 13.9976 239.158 13.7259C238.82 13.4541 238.389 13.3182 237.866 13.3182C237.342 13.3182 236.911 13.4541 236.573 13.7259C236.235 13.9976 235.985 14.3539 235.822 14.7947C235.66 15.2356 235.579 15.7112 235.579 16.2216C235.579 16.732 235.66 17.206 235.822 17.6435C235.985 18.081 236.235 18.4339 236.573 18.7024C236.911 18.9709 237.342 19.1051 237.866 19.1051ZM243.117 20V12.3636H244.25V13.5568H244.35C244.509 13.1491 244.766 12.8326 245.12 12.6072C245.475 12.3786 245.901 12.2642 246.398 12.2642C246.902 12.2642 247.321 12.3786 247.656 12.6072C247.994 12.8326 248.257 13.1491 248.446 13.5568H248.526C248.721 13.1624 249.015 12.8492 249.406 12.6172C249.797 12.3819 250.266 12.2642 250.813 12.2642C251.496 12.2642 252.054 12.478 252.488 12.9055C252.922 13.3298 253.14 13.991 253.14 14.8892V20H251.966V14.8892C251.966 14.3258 251.812 13.9231 251.504 13.6811C251.196 13.4392 250.833 13.3182 250.415 13.3182C249.878 13.3182 249.462 13.4806 249.167 13.8054C248.872 14.1269 248.725 14.5346 248.725 15.0284V20H247.532V14.7699C247.532 14.3357 247.391 13.986 247.109 13.7209C246.827 13.4524 246.464 13.3182 246.02 13.3182C245.715 13.3182 245.43 13.3994 245.165 13.5618C244.903 13.7242 244.691 13.9496 244.529 14.2379C244.37 14.523 244.29 14.8527 244.29 15.2273V20H243.117ZM258.884 9.34091L255.603 21.5312H254.529L257.81 9.34091H258.884ZM260.275 22.8636V12.3636H261.409V13.5767H261.548C261.634 13.4441 261.753 13.2751 261.906 13.0696C262.061 12.8608 262.284 12.6752 262.572 12.5128C262.864 12.3471 263.258 12.2642 263.755 12.2642C264.398 12.2642 264.965 12.425 265.455 12.7464C265.946 13.0679 266.329 13.5237 266.604 14.1136C266.879 14.7036 267.017 15.3996 267.017 16.2017C267.017 17.0104 266.879 17.7114 266.604 18.3047C266.329 18.8946 265.948 19.352 265.46 19.6768C264.973 19.9983 264.411 20.1591 263.775 20.1591C263.285 20.1591 262.892 20.0779 262.597 19.9155C262.302 19.7498 262.075 19.5625 261.916 19.3537C261.757 19.1416 261.634 18.9659 261.548 18.8267H261.448V22.8636H260.275ZM261.428 16.1818C261.428 16.7585 261.513 17.2673 261.682 17.7081C261.851 18.1456 262.098 18.4886 262.423 18.7372C262.748 18.9825 263.145 19.1051 263.616 19.1051C264.106 19.1051 264.516 18.9759 264.844 18.7173C265.175 18.4555 265.424 18.1042 265.59 17.6634C265.759 17.2192 265.843 16.7254 265.843 16.1818C265.843 15.6449 265.76 15.161 265.595 14.7301C265.432 14.2959 265.185 13.9529 264.854 13.701C264.526 13.4458 264.113 13.3182 263.616 13.3182C263.139 13.3182 262.738 13.4392 262.413 13.6811C262.088 13.9197 261.843 14.2545 261.677 14.6854C261.511 15.1129 261.428 15.6117 261.428 16.1818ZM268.806 20V12.3636H269.94V13.517H270.019C270.159 13.1392 270.41 12.8326 270.775 12.5973C271.14 12.362 271.551 12.2443 272.008 12.2443C272.094 12.2443 272.202 12.246 272.331 12.2493C272.46 12.2526 272.558 12.2576 272.624 12.2642V13.4574C272.585 13.4474 272.494 13.4325 272.351 13.4126C272.212 13.3894 272.064 13.3778 271.909 13.3778C271.537 13.3778 271.206 13.4557 270.914 13.6115C270.626 13.764 270.397 13.9761 270.228 14.2479C270.062 14.5163 269.98 14.8229 269.98 15.1676V20H268.806ZM276.885 20.1591C276.196 20.1591 275.591 19.995 275.07 19.6669C274.553 19.3388 274.149 18.8797 273.857 18.2898C273.569 17.6998 273.425 17.0104 273.425 16.2216C273.425 15.4261 273.569 14.7318 273.857 14.1385C274.149 13.5452 274.553 13.0845 275.07 12.7564C275.591 12.4283 276.196 12.2642 276.885 12.2642C277.575 12.2642 278.178 12.4283 278.695 12.7564C279.215 13.0845 279.619 13.5452 279.908 14.1385C280.2 14.7318 280.345 15.4261 280.345 16.2216C280.345 17.0104 280.2 17.6998 279.908 18.2898C279.619 18.8797 279.215 19.3388 278.695 19.6669C278.178 19.995 277.575 20.1591 276.885 20.1591ZM276.885 19.1051C277.409 19.1051 277.84 18.9709 278.178 18.7024C278.516 18.4339 278.766 18.081 278.928 17.6435C279.091 17.206 279.172 16.732 279.172 16.2216C279.172 15.7112 279.091 15.2356 278.928 14.7947C278.766 14.3539 278.516 13.9976 278.178 13.7259C277.84 13.4541 277.409 13.3182 276.885 13.3182C276.361 13.3182 275.931 13.4541 275.593 13.7259C275.254 13.9976 275.004 14.3539 274.842 14.7947C274.679 15.2356 274.598 15.7112 274.598 16.2216C274.598 16.732 274.679 17.206 274.842 17.6435C275.004 18.081 275.254 18.4339 275.593 18.7024C275.931 18.9709 276.361 19.1051 276.885 19.1051ZM282.136 12.3636H283.31V20.5568C283.31 21.0275 283.228 21.4351 283.066 21.7798C282.907 22.1245 282.665 22.3913 282.34 22.5803C282.019 22.7692 281.613 22.8636 281.122 22.8636C281.082 22.8636 281.043 22.8636 281.003 22.8636C280.963 22.8636 280.923 22.8636 280.884 22.8636V21.7699C280.923 21.7699 280.96 21.7699 280.993 21.7699C281.026 21.7699 281.062 21.7699 281.102 21.7699C281.46 21.7699 281.722 21.6638 281.888 21.4517C282.054 21.2429 282.136 20.9446 282.136 20.5568V12.3636ZM282.713 11.0909C282.484 11.0909 282.287 11.013 282.121 10.8572C281.959 10.7015 281.878 10.5142 281.878 10.2955C281.878 10.0767 281.959 9.88944 282.121 9.73366C282.287 9.57789 282.484 9.5 282.713 9.5C282.942 9.5 283.137 9.57789 283.3 9.73366C283.465 9.88944 283.548 10.0767 283.548 10.2955C283.548 10.5142 283.465 10.7015 283.3 10.8572C283.137 11.013 282.942 11.0909 282.713 11.0909ZM288.66 20.1591C287.925 20.1591 287.29 19.9967 286.756 19.6719C286.226 19.3438 285.817 18.8864 285.528 18.2997C285.243 17.7098 285.101 17.0237 285.101 16.2415C285.101 15.4593 285.243 14.7699 285.528 14.1733C285.817 13.5734 286.218 13.1061 286.731 12.7713C287.248 12.4332 287.852 12.2642 288.541 12.2642C288.939 12.2642 289.331 12.3305 289.719 12.4631C290.107 12.5956 290.46 12.8111 290.778 13.1094C291.096 13.4044 291.35 13.7955 291.539 14.2827C291.728 14.7699 291.822 15.3698 291.822 16.0824V16.5795H285.936V15.5653H290.629C290.629 15.1345 290.543 14.75 290.371 14.4119C290.202 14.0739 289.96 13.8071 289.645 13.6115C289.333 13.416 288.965 13.3182 288.541 13.3182C288.074 13.3182 287.669 13.4342 287.328 13.6662C286.99 13.8949 286.73 14.1932 286.547 14.5611C286.365 14.929 286.274 15.3234 286.274 15.7443V16.4205C286.274 16.9972 286.373 17.486 286.572 17.8871C286.774 18.2848 287.055 18.5881 287.412 18.7969C287.77 19.0024 288.186 19.1051 288.66 19.1051C288.969 19.1051 289.247 19.062 289.496 18.9759C289.747 18.8864 289.965 18.7538 290.147 18.5781C290.329 18.3991 290.47 18.1771 290.569 17.9119L291.703 18.2301C291.584 18.6146 291.383 18.9527 291.101 19.2443C290.82 19.5327 290.472 19.758 290.057 19.9205C289.643 20.0795 289.177 20.1591 288.66 20.1591ZM296.709 20.1591C295.993 20.1591 295.377 19.9901 294.86 19.652C294.343 19.3139 293.945 18.8482 293.667 18.255C293.388 17.6617 293.249 16.9839 293.249 16.2216C293.249 15.446 293.392 14.7616 293.677 14.1683C293.965 13.5717 294.366 13.1061 294.88 12.7713C295.397 12.4332 296 12.2642 296.689 12.2642C297.226 12.2642 297.71 12.3636 298.141 12.5625C298.572 12.7614 298.925 13.0398 299.2 13.3977C299.475 13.7557 299.646 14.1733 299.712 14.6506H298.539C298.449 14.3026 298.251 13.9943 297.942 13.7259C297.637 13.4541 297.226 13.3182 296.709 13.3182C296.252 13.3182 295.851 13.4375 295.506 13.6761C295.165 13.9115 294.898 14.2446 294.706 14.6754C294.517 15.103 294.422 15.6051 294.422 16.1818C294.422 16.7718 294.515 17.2855 294.701 17.723C294.89 18.1605 295.155 18.5002 295.496 18.7422C295.841 18.9841 296.245 19.1051 296.709 19.1051C297.014 19.1051 297.291 19.0521 297.54 18.946C297.788 18.84 297.999 18.6875 298.171 18.4886C298.343 18.2898 298.466 18.0511 298.539 17.7727H299.712C299.646 18.2235 299.482 18.6295 299.22 18.9908C298.961 19.3487 298.618 19.6338 298.191 19.8459C297.767 20.0547 297.273 20.1591 296.709 20.1591ZM304.748 12.3636V13.358H300.791V12.3636H304.748ZM301.944 10.5341H303.118V17.8125C303.118 18.1439 303.166 18.3925 303.262 18.5582C303.361 18.7206 303.487 18.83 303.64 18.8864C303.796 18.9394 303.96 18.9659 304.132 18.9659C304.261 18.9659 304.367 18.9593 304.45 18.946C304.533 18.9295 304.599 18.9162 304.649 18.9062L304.888 19.9602C304.808 19.9901 304.697 20.0199 304.555 20.0497C304.412 20.0829 304.231 20.0994 304.013 20.0994C303.681 20.0994 303.356 20.0282 303.038 19.8857C302.723 19.7431 302.461 19.526 302.253 19.2344C302.047 18.9427 301.944 18.5748 301.944 18.1307V10.5341ZM311.786 14.0739L310.732 14.3722C310.665 14.1965 310.568 14.0258 310.438 13.8601C310.312 13.6911 310.14 13.5518 309.921 13.4425C309.703 13.3331 309.423 13.2784 309.081 13.2784C308.614 13.2784 308.224 13.3861 307.913 13.6016C307.605 13.8137 307.45 14.0838 307.45 14.4119C307.45 14.7036 307.557 14.9339 307.769 15.103C307.981 15.272 308.312 15.4129 308.763 15.5256L309.896 15.804C310.579 15.9697 311.088 16.2232 311.423 16.5646C311.758 16.9027 311.925 17.3385 311.925 17.8722C311.925 18.3097 311.799 18.7008 311.547 19.0455C311.298 19.3902 310.95 19.6619 310.503 19.8608C310.056 20.0597 309.535 20.1591 308.942 20.1591C308.163 20.1591 307.518 19.9901 307.008 19.652C306.498 19.3139 306.174 18.8201 306.039 18.1705L307.152 17.892C307.258 18.303 307.459 18.6113 307.754 18.8168C308.052 19.0223 308.441 19.125 308.922 19.125C309.469 19.125 309.903 19.009 310.225 18.777C310.549 18.5417 310.712 18.2599 310.712 17.9318C310.712 17.6667 310.619 17.4446 310.433 17.2656C310.248 17.0833 309.963 16.9474 309.578 16.858L308.306 16.5597C307.606 16.3939 307.093 16.1371 306.764 15.7891C306.44 15.4377 306.277 14.9986 306.277 14.4716C306.277 14.0407 306.398 13.6596 306.64 13.3281C306.885 12.9967 307.218 12.7365 307.639 12.5476C308.064 12.3587 308.544 12.2642 309.081 12.2642C309.837 12.2642 310.43 12.4299 310.861 12.7614C311.295 13.0928 311.603 13.5303 311.786 14.0739Z" fill="white"/>
</svg>
