<svg width="66" height="16" viewBox="0 0 66 16" fill="none" xmlns="http://www.w3.org/2000/svg">
<path d="M38.8 1.01829e-06H28.19C27.9024 -8.57007e-05 27.6175 0.0565084 27.3518 0.166535C27.0861 0.276563 26.8446 0.437874 26.6412 0.641252C26.4379 0.844629 26.2765 1.08608 26.1665 1.35182C26.0565 1.61757 25.9999 1.90238 26 2.19V12.81C25.9999 13.0976 26.0565 13.3824 26.1665 13.6482C26.2765 13.9139 26.4379 14.1554 26.6412 14.3588C26.8446 14.5621 27.0861 14.7235 27.3518 14.8335C27.6175 14.9435 27.9024 15.0001 28.19 15H38.8C39.3819 15.0006 39.9403 14.7703 40.3527 14.3598C40.7651 13.9492 40.9979 13.3919 41 12.81V2.19C40.9979 1.60809 40.7651 1.05075 40.3527 0.640214C39.9403 0.229675 39.3819 -0.000558737 38.8 1.01829e-06V1.01829e-06Z" fill="#E6E6E6"/>
<path d="M12.8 1.01829e-06H2.19C1.90238 -8.57007e-05 1.61755 0.0565084 1.35181 0.166535C1.08606 0.276563 0.844613 0.437874 0.641235 0.641252C0.437858 0.844629 0.276531 1.08608 0.166504 1.35182C0.0564769 1.61757 -8.66194e-05 1.90238 9.95622e-08 2.19V12.81C-8.66194e-05 13.0976 0.0564769 13.3824 0.166504 13.6482C0.276531 13.9139 0.437858 14.1554 0.641235 14.3588C0.844613 14.5621 1.08606 14.7235 1.35181 14.8335C1.61755 14.9435 1.90238 15.0001 2.19 15H12.8C13.3819 15.0006 13.9403 14.7703 14.3527 14.3598C14.7651 13.9492 14.9979 13.3919 15 12.81V2.19C14.9979 1.60809 14.7651 1.05075 14.3527 0.640214C13.9403 0.229675 13.3819 -0.000558737 12.8 1.01829e-06V1.01829e-06Z" fill="#E6E6E6"/>
<path d="M63.3 0.500001H52.69C52.4024 0.499914 52.1175 0.556508 51.8518 0.666535C51.5861 0.776563 51.3446 0.937874 51.1412 1.14125C50.9379 1.34463 50.7765 1.58608 50.6665 1.85182C50.5565 2.11757 50.4999 2.40238 50.5 2.69V13.31C50.4999 13.5976 50.5565 13.8824 50.6665 14.1482C50.7765 14.4139 50.9379 14.6554 51.1412 14.8588C51.3446 15.0621 51.5861 15.2235 51.8518 15.3335C52.1175 15.4435 52.4024 15.5001 52.69 15.5H63.3C63.8819 15.5006 64.4403 15.2703 64.8527 14.8598C65.2651 14.4492 65.4979 13.8919 65.5 13.31V2.69C65.4979 2.10809 65.2651 1.55075 64.8527 1.14021C64.4403 0.729675 63.8819 0.499441 63.3 0.500001V0.500001Z" fill="#E6E6E6"/>
</svg>
