<svg width="118" height="18" viewBox="0 0 118 18" fill="none" xmlns="http://www.w3.org/2000/svg">
<path d="M9.3548 17.2901C14.0253 17.2901 17.8114 13.4196 17.8114 8.64507C17.8114 3.87053 14.0253 0 9.3548 0C4.68435 0 0.898193 3.87053 0.898193 8.64507C0.898193 13.4196 4.68435 17.2901 9.3548 17.2901Z" fill="#E6E6E6"/>
<path d="M38.5687 17.2901C43.2391 17.2901 47.0253 13.4196 47.0253 8.64507C47.0253 3.87053 43.2391 0 38.5687 0C33.8982 0 30.1121 3.87053 30.1121 8.64507C30.1121 13.4196 33.8982 17.2901 38.5687 17.2901Z" fill="#E6E6E6"/>
<path d="M67.7823 17.2901C72.4528 17.2901 76.2389 13.4196 76.2389 8.64507C76.2389 3.87053 72.4528 0 67.7823 0C63.1118 0 59.3257 3.87053 59.3257 8.64507C59.3257 13.4196 63.1118 17.2901 67.7823 17.2901Z" fill="#E6E6E6"/>
<path d="M101.094 15.4779C100.961 15.4781 100.829 15.4515 100.706 15.3999C100.583 15.3482 100.472 15.2725 100.379 15.1771L94.673 9.34409C94.4901 9.15729 94.3877 8.90628 94.3877 8.64487C94.3877 8.38346 94.4901 8.13245 94.673 7.94565L100.379 2.11313C100.565 1.92655 100.817 1.82098 101.081 1.81935C101.344 1.81773 101.598 1.92018 101.786 2.10445C101.975 2.28872 102.083 2.53992 102.087 2.80341C102.091 3.0669 101.991 3.32139 101.809 3.51157L96.7867 8.64487L101.809 13.7787C101.946 13.9194 102.039 14.0976 102.076 14.2909C102.113 14.4843 102.092 14.6842 102.016 14.8657C101.939 15.0471 101.811 15.202 101.647 15.3109C101.483 15.4198 101.291 15.4779 101.094 15.4779V15.4779Z" fill="#E6E6E6"/>
<path d="M110.682 15.4779C110.485 15.4779 110.293 15.4198 110.129 15.3109C109.965 15.202 109.837 15.0471 109.76 14.8657C109.684 14.6843 109.663 14.4843 109.7 14.291C109.737 14.0976 109.83 13.9194 109.967 13.7787L114.989 8.64492L109.967 3.51162C109.874 3.41806 109.8 3.30692 109.75 3.18465C109.7 3.06238 109.674 2.93139 109.675 2.79924C109.676 2.6671 109.703 2.53644 109.755 2.4148C109.806 2.29316 109.882 2.18295 109.976 2.09055C110.07 1.99815 110.182 1.92537 110.305 1.87645C110.428 1.82754 110.559 1.80344 110.691 1.80555C110.823 1.80765 110.954 1.83592 111.075 1.88872C111.196 1.94152 111.305 2.0178 111.397 2.11316L117.103 7.9457C117.285 8.1325 117.388 8.38351 117.388 8.64492C117.388 8.90633 117.285 9.15733 117.103 9.34414L111.397 15.1771C111.304 15.2725 111.193 15.3482 111.07 15.3999C110.947 15.4516 110.815 15.4781 110.682 15.4779V15.4779Z" fill="#E6E6E6"/>
</svg>
